<svg xmlns="http://www.w3.org/2000/svg" width="1200" height="1200" viewBox="0 0 1200 1200">
        <g>
            <path d="M 636.37 600.00 L 638.77 602.03 L 640.05 604.21 L 640.15 606.36 L 639.09 608.31 L 637.06 609.93 L 634.32 611.15 L 631.15 611.96 L 627.84 612.40 L 624.65 612.56 L 621.73 612.55 L 619.19 612.46 L 617.02 612.37 L 615.19 612.30 L 613.62 612.27 L 612.24 612.24 L 610.99 612.21 L 609.86 612.18 L 608.85 612.18 L 607.98 612.29 L 607.29 612.63 L 606.79 613.33 L 606.46 614.51 L 606.23 616.23 L 606.01 618.49 L 605.68 621.20 L 605.14 624.16 L 604.30 627.13 L 603.13 629.80 L 601.67 631.88 L 600.00 633.12 L 598.25 633.38 L 596.57 632.62 L 595.10 630.97 L 593.91 628.63 L 593.05 625.92 L 592.46 623.20 L 592.02 620.78 L 591.57 618.92 L 590.93 617.80 L 589.94 617.43 L 588.49 617.73 L 586.56 618.50 L 584.21 619.50 L 581.60 620.44 L 578.91 621.09 L 576.38 621.27 L 574.22 620.88 L 572.58 619.92 L 571.56 618.47 L 571.16 616.65 L 571.33 614.61 L 571.93 612.50 L 572.84 610.43 L 573.90 608.48 L 575.03 606.69 L 576.18 605.06 L 577.34 603.59 L 578.55 602.25 L 579.87 601.06 L 581.32 600.00 L 582.91 599.10 L 584.57 598.38 L 586.18 597.81 L 587.55 597.35 L 588.49 596.92 L 588.84 596.37 L 588.45 595.57 L 587.29 594.34 L 585.43 592.58 L 583.05 590.21 L 580.40 587.27 L 577.80 583.87 L 575.58 580.22 L 574.02 576.60 L 573.32 573.32 L 573.57 570.65 L 574.75 568.82 L 576.73 567.97 L 579.28 568.09 L 582.15 569.09 L 585.08 570.72 L 587.86 572.73 L 590.32 574.79 L 592.41 576.63 L 594.12 578.05 L 595.52 578.93 L 596.71 579.25 L 597.80 579.11 L 598.88 578.66 L 600.00 578.07 L 601.18 577.52 L 602.40 577.14 L 603.64 576.99 L 604.87 577.08 L 606.07 577.35 L 607.24 577.72 L 608.42 578.08 L 609.63 578.37 L 610.91 578.59 L 612.27 578.75 L 613.68 578.94 L 615.05 579.28 L 616.29 579.88 L 617.26 580.83 L 617.84 582.16 L 617.95 583.84 L 617.57 585.77 L 616.79 587.80 L 615.75 589.77 L 614.71 591.51 L 613.94 592.90 L 613.72 593.89 L 614.28 594.52 L 615.76 594.88 L 618.18 595.13 L 621.42 595.45 L 625.22 596.01 L 629.24 596.93 L 633.09 598.27 L 636.37 600.00 Z" fill="none" stroke="#2563EB" stroke-width="2.5" />
            <path d="M 663.42 600.00 L 664.30 603.37 L 664.06 606.73 L 662.82 609.95 L 660.81 612.93 L 658.27 615.61 L 655.43 618.01 L 652.50 620.15 L 649.61 622.09 L 646.81 623.85 L 644.10 625.46 L 641.45 626.92 L 638.82 628.20 L 636.17 629.29 L 633.50 630.16 L 630.85 630.85 L 628.29 631.41 L 625.90 631.98 L 623.76 632.70 L 621.90 633.73 L 620.32 635.20 L 618.96 637.20 L 617.69 639.74 L 616.39 642.70 L 614.92 645.91 L 613.15 649.07 L 611.03 651.90 L 608.57 654.09 L 605.82 655.39 L 602.92 655.67 L 600.00 654.91 L 597.21 653.24 L 594.65 650.88 L 592.37 648.17 L 590.34 645.44 L 588.47 643.04 L 586.61 641.21 L 584.60 640.11 L 582.31 639.74 L 579.62 640.00 L 576.51 640.68 L 573.04 641.52 L 569.31 642.24 L 565.51 642.59 L 561.83 642.39 L 558.46 641.54 L 555.55 640.03 L 553.17 637.93 L 551.34 635.35 L 550.03 632.45 L 549.16 629.35 L 548.65 626.16 L 548.42 622.96 L 548.44 619.79 L 548.71 616.67 L 549.28 613.59 L 550.21 610.58 L 551.56 607.67 L 553.35 604.90 L 555.52 602.33 L 557.96 600.00 L 560.48 597.93 L 562.82 596.09 L 564.73 594.41 L 565.98 592.77 L 566.40 591.00 L 565.92 588.93 L 564.61 586.42 L 562.65 583.37 L 560.33 579.79 L 557.99 575.74 L 555.98 571.41 L 554.63 567.04 L 554.17 562.89 L 554.72 559.23 L 556.28 556.28 L 558.72 554.15 L 561.84 552.87 L 565.38 552.36 L 569.10 552.42 L 572.77 552.83 L 576.23 553.34 L 579.40 553.73 L 582.28 553.84 L 584.92 553.60 L 587.41 553.03 L 589.84 552.22 L 592.29 551.31 L 594.79 550.46 L 597.37 549.82 L 600.00 549.46 L 602.65 549.41 L 605.29 549.65 L 607.91 550.08 L 610.50 550.62 L 613.08 551.17 L 615.69 551.70 L 618.34 552.22 L 621.02 552.78 L 623.68 553.52 L 626.23 554.57 L 628.54 556.05 L 630.48 558.05 L 631.91 560.60 L 632.76 563.62 L 633.03 566.97 L 632.81 570.46 L 632.27 573.86 L 631.68 576.98 L 631.34 579.65 L 631.53 581.79 L 632.51 583.43 L 634.43 584.67 L 637.30 585.68 L 641.01 586.67 L 645.33 587.85 L 649.90 589.39 L 654.34 591.39 L 658.28 593.87 L 661.38 596.78 L 663.42 600.00 Z" fill="none" stroke="#2563EB" stroke-width="2.5" />
            <path d="M 686.61 600.00 L 686.43 604.53 L 685.51 608.99 L 684.04 613.31 L 682.18 617.47 L 680.08 621.46 L 677.80 625.28 L 675.36 628.93 L 672.73 632.38 L 669.86 635.60 L 666.73 638.53 L 663.33 641.13 L 659.72 643.39 L 655.98 645.33 L 652.24 647.04 L 648.64 648.64 L 645.29 650.30 L 642.26 652.19 L 639.57 654.46 L 637.14 657.18 L 634.85 660.37 L 632.56 663.90 L 630.09 667.58 L 627.31 671.14 L 624.13 674.26 L 620.54 676.65 L 616.60 678.08 L 612.42 678.42 L 608.16 677.68 L 603.98 675.99 L 600.00 673.62 L 596.28 670.89 L 592.84 668.17 L 589.58 665.77 L 586.41 663.96 L 583.16 662.86 L 579.69 662.49 L 575.92 662.74 L 571.78 663.39 L 567.30 664.18 L 562.57 664.82 L 557.74 665.08 L 552.94 664.77 L 548.35 663.79 L 544.07 662.12 L 540.17 659.83 L 536.70 657.00 L 533.62 653.75 L 530.92 650.19 L 528.56 646.39 L 526.54 642.41 L 524.89 638.27 L 523.70 633.97 L 523.05 629.54 L 523.05 625.00 L 523.77 620.43 L 525.23 615.89 L 527.36 611.50 L 530.00 607.36 L 532.90 603.52 L 535.76 600.00 L 538.28 596.77 L 540.16 593.71 L 541.21 590.69 L 541.33 587.53 L 540.57 584.08 L 539.11 580.22 L 537.25 575.91 L 535.32 571.20 L 533.71 566.22 L 532.74 561.17 L 532.65 556.26 L 533.58 551.75 L 535.54 547.80 L 538.40 544.53 L 541.98 541.98 L 546.02 540.05 L 550.29 538.61 L 554.56 537.46 L 558.71 536.41 L 562.64 535.28 L 566.36 533.97 L 569.92 532.43 L 573.41 530.72 L 576.91 528.93 L 580.49 527.20 L 584.20 525.66 L 588.03 524.43 L 591.96 523.55 L 595.97 523.02 L 600.00 522.78 L 604.05 522.74 L 608.11 522.81 L 612.21 522.94 L 616.35 523.10 L 620.54 523.35 L 624.76 523.81 L 628.93 524.63 L 632.95 525.99 L 636.67 528.03 L 639.93 530.83 L 642.60 534.40 L 644.59 538.63 L 645.88 543.34 L 646.57 548.28 L 646.84 553.16 L 646.95 557.73 L 647.21 561.77 L 647.92 565.19 L 649.33 567.96 L 651.62 570.20 L 654.82 572.07 L 658.84 573.80 L 663.46 575.64 L 668.38 577.78 L 673.22 580.38 L 677.65 583.50 L 681.35 587.11 L 684.13 591.16 L 685.88 595.50 L 686.61 600.00 Z" fill="none" stroke="#2563EB" stroke-width="2.5" />
            <path d="M 707.90 600.00 L 707.67 605.64 L 707.04 611.25 L 706.08 616.80 L 704.79 622.27 L 703.13 627.63 L 701.05 632.83 L 698.48 637.80 L 695.39 642.47 L 691.80 646.78 L 687.80 650.69 L 683.52 654.24 L 679.13 657.49 L 674.82 660.58 L 670.72 663.68 L 666.93 666.93 L 663.47 670.50 L 660.28 674.44 L 657.21 678.74 L 654.09 683.29 L 650.73 687.87 L 646.98 692.20 L 642.73 695.98 L 637.96 698.90 L 632.74 700.75 L 627.18 701.43 L 621.46 700.94 L 615.75 699.44 L 610.22 697.21 L 604.96 694.57 L 600.00 691.90 L 595.31 689.53 L 590.78 687.69 L 586.29 686.54 L 581.70 686.08 L 576.90 686.19 L 571.83 686.70 L 566.48 687.33 L 560.89 687.85 L 555.16 688.01 L 549.39 687.65 L 543.70 686.69 L 538.17 685.10 L 532.85 682.93 L 527.75 680.24 L 522.90 677.10 L 518.27 673.59 L 513.91 669.71 L 509.86 665.49 L 506.22 660.90 L 503.15 655.92 L 500.78 650.55 L 499.28 644.85 L 498.74 638.87 L 499.19 632.76 L 500.55 626.65 L 502.66 620.69 L 505.24 615.01 L 507.95 609.67 L 510.46 604.69 L 512.44 600.00 L 513.68 595.48 L 514.05 590.97 L 513.61 586.32 L 512.51 581.40 L 511.04 576.16 L 509.54 570.61 L 508.38 564.83 L 507.88 558.99 L 508.27 553.26 L 509.69 547.86 L 512.12 542.93 L 515.45 538.57 L 519.48 534.80 L 523.99 531.56 L 528.72 528.72 L 533.49 526.13 L 538.16 523.63 L 542.67 521.09 L 547.03 518.43 L 551.29 515.64 L 555.56 512.78 L 559.91 509.95 L 564.41 507.28 L 569.09 504.86 L 573.95 502.77 L 578.96 501.03 L 584.10 499.61 L 589.32 498.43 L 594.62 497.40 L 600.00 496.44 L 605.47 495.54 L 611.07 494.71 L 616.78 494.07 L 622.57 493.80 L 628.38 494.10 L 634.06 495.19 L 639.45 497.23 L 644.37 500.33 L 648.67 504.48 L 652.23 509.54 L 655.01 515.29 L 657.09 521.42 L 658.63 527.60 L 659.87 533.51 L 661.11 538.89 L 662.64 543.60 L 664.71 547.60 L 667.51 550.95 L 671.09 553.84 L 675.38 556.48 L 680.20 559.14 L 685.30 562.02 L 690.36 565.31 L 695.08 569.11 L 699.21 573.42 L 702.57 578.20 L 705.07 583.36 L 706.73 588.78 L 707.63 594.36 L 707.90 600.00 Z" fill="none" stroke="#2563EB" stroke-width="2.5" />
            <path d="M 729.82 600.00 L 730.06 606.82 L 729.88 613.65 L 729.19 620.46 L 727.90 627.19 L 725.93 633.74 L 723.25 640.05 L 719.89 646.02 L 715.97 651.63 L 711.65 656.89 L 707.15 661.86 L 702.66 666.67 L 698.37 671.47 L 694.36 676.41 L 690.65 681.62 L 687.16 687.16 L 683.73 693.00 L 680.16 698.99 L 676.23 704.93 L 671.76 710.51 L 666.64 715.42 L 660.82 719.37 L 654.38 722.14 L 647.46 723.63 L 640.25 723.87 L 632.96 723.00 L 625.78 721.29 L 618.86 719.08 L 612.27 716.73 L 606.00 714.56 L 600.00 712.81 L 594.15 711.62 L 588.33 711.01 L 582.44 710.90 L 576.38 711.11 L 570.14 711.42 L 563.73 711.63 L 557.18 711.55 L 550.56 711.05 L 543.92 710.06 L 537.31 708.58 L 530.75 706.63 L 524.24 704.27 L 517.79 701.52 L 511.40 698.40 L 505.14 694.86 L 499.10 690.85 L 493.44 686.29 L 488.34 681.12 L 484.02 675.32 L 480.67 668.90 L 478.41 661.95 L 477.31 654.63 L 477.29 647.11 L 478.18 639.58 L 479.71 632.23 L 481.54 625.18 L 483.31 618.48 L 484.71 612.12 L 485.50 606.00 L 485.58 600.00 L 484.96 593.97 L 483.82 587.79 L 482.43 581.38 L 481.12 574.73 L 480.25 567.91 L 480.10 561.04 L 480.91 554.29 L 482.76 547.80 L 485.64 541.73 L 489.43 536.16 L 493.91 531.10 L 498.86 526.52 L 504.05 522.30 L 509.29 518.32 L 514.45 514.45 L 519.51 510.60 L 524.46 506.71 L 529.38 502.80 L 534.35 498.91 L 539.46 495.14 L 544.76 491.58 L 550.26 488.29 L 555.98 485.32 L 561.86 482.63 L 567.89 480.16 L 574.03 477.82 L 580.28 475.51 L 586.67 473.19 L 593.23 470.84 L 600.00 468.56 L 607.00 466.52 L 614.19 464.96 L 621.52 464.14 L 628.84 464.33 L 635.97 465.74 L 642.73 468.49 L 648.92 472.57 L 654.39 477.84 L 659.08 484.05 L 663.02 490.85 L 666.32 497.88 L 669.19 504.76 L 671.90 511.21 L 674.70 517.03 L 677.85 522.15 L 681.49 526.62 L 685.71 530.59 L 690.47 534.27 L 695.61 537.91 L 700.94 541.72 L 706.20 545.89 L 711.16 550.51 L 715.61 555.62 L 719.42 561.20 L 722.55 567.16 L 725.01 573.43 L 726.88 579.90 L 728.25 586.52 L 729.22 593.23 L 729.82 600.00 Z" fill="none" stroke="#2563EB" stroke-width="2.5" />
            <path d="M 753.20 600.00 L 753.46 608.04 L 752.98 616.08 L 751.68 624.02 L 749.54 631.78 L 746.61 639.28 L 743.04 646.48 L 739.02 653.36 L 734.79 660.01 L 730.58 666.53 L 726.56 673.07 L 722.83 679.77 L 719.39 686.74 L 716.13 694.04 L 712.85 701.61 L 709.32 709.32 L 705.29 716.93 L 700.53 724.15 L 694.92 730.64 L 688.40 736.12 L 681.04 740.37 L 673.00 743.27 L 664.48 744.83 L 655.74 745.20 L 646.99 744.61 L 638.42 743.39 L 630.15 741.86 L 622.22 740.31 L 614.61 738.99 L 607.23 738.02 L 600.00 737.42 L 592.81 737.14 L 585.60 737.04 L 578.31 736.96 L 570.94 736.74 L 563.49 736.26 L 555.99 735.46 L 548.45 734.30 L 540.87 732.82 L 533.23 731.04 L 525.52 729.01 L 517.71 726.71 L 509.83 724.11 L 501.93 721.11 L 494.14 717.57 L 486.64 713.36 L 479.64 708.37 L 473.39 702.52 L 468.11 695.82 L 463.97 688.34 L 461.01 680.24 L 459.22 671.73 L 458.41 663.04 L 458.33 654.38 L 458.66 645.92 L 459.05 637.77 L 459.20 629.93 L 458.88 622.35 L 458.01 614.92 L 456.62 607.51 L 454.88 600.00 L 453.06 592.30 L 451.48 584.39 L 450.47 576.32 L 450.32 568.18 L 451.20 560.13 L 453.21 552.30 L 456.30 544.84 L 460.32 537.81 L 465.08 531.26 L 470.35 525.14 L 475.89 519.40 L 481.54 513.93 L 487.18 508.64 L 492.79 503.47 L 498.38 498.38 L 504.01 493.39 L 509.75 488.55 L 515.67 483.92 L 521.79 479.57 L 528.13 475.52 L 534.65 471.74 L 541.31 468.18 L 548.07 464.71 L 554.91 461.23 L 561.85 457.62 L 568.93 453.85 L 576.23 449.93 L 583.81 446.01 L 591.74 442.30 L 600.00 439.10 L 608.56 436.74 L 617.29 435.54 L 626.01 435.75 L 634.54 437.52 L 642.64 440.86 L 650.16 445.63 L 656.97 451.58 L 663.07 458.35 L 668.50 465.55 L 673.44 472.80 L 678.08 479.77 L 682.64 486.26 L 687.33 492.16 L 692.29 497.51 L 697.58 502.42 L 703.19 507.09 L 708.99 511.74 L 714.83 516.57 L 720.52 521.73 L 725.87 527.33 L 730.74 533.38 L 735.07 539.87 L 738.82 546.71 L 742.05 553.85 L 744.82 561.20 L 747.21 568.71 L 749.27 576.36 L 750.99 584.13 L 752.34 592.02 L 753.20 600.00 Z" fill="none" stroke="#2563EB" stroke-width="2.5" />
            <path d="M 776.62 600.00 L 775.94 609.22 L 774.31 618.32 L 771.84 627.22 L 768.68 635.85 L 765.08 644.23 L 761.31 652.41 L 757.60 660.50 L 754.14 668.63 L 751.02 676.95 L 748.22 685.57 L 745.59 694.55 L 742.90 703.83 L 739.88 713.27 L 736.22 722.65 L 731.67 731.67 L 726.07 740.01 L 719.34 747.38 L 711.55 753.53 L 702.84 758.36 L 693.44 761.83 L 683.60 764.07 L 673.58 765.27 L 663.61 765.70 L 653.82 765.64 L 644.30 765.34 L 635.07 765.00 L 626.09 764.73 L 617.30 764.55 L 608.62 764.43 L 600.00 764.25 L 591.41 763.93 L 582.83 763.37 L 574.26 762.52 L 565.70 761.38 L 557.13 759.99 L 548.53 758.41 L 539.85 756.71 L 531.03 754.91 L 522.05 752.99 L 512.89 750.87 L 503.63 748.40 L 494.37 745.39 L 485.30 741.65 L 476.65 736.99 L 468.68 731.32 L 461.61 724.61 L 455.62 716.91 L 450.79 708.41 L 447.09 699.30 L 444.37 689.85 L 442.39 680.31 L 440.85 670.86 L 439.42 661.64 L 437.84 652.69 L 435.90 643.97 L 433.55 635.38 L 430.83 626.79 L 427.92 618.09 L 425.10 609.17 L 422.68 600.00 L 420.98 590.62 L 420.26 581.11 L 420.69 571.60 L 422.33 562.24 L 425.13 553.14 L 428.94 544.42 L 433.56 536.11 L 438.78 528.22 L 444.38 520.71 L 450.21 513.52 L 456.17 506.60 L 462.24 499.91 L 468.44 493.46 L 474.81 487.28 L 481.40 481.40 L 488.23 475.87 L 495.30 470.71 L 502.58 465.91 L 509.99 461.40 L 517.46 457.04 L 524.94 452.69 L 532.41 448.19 L 539.90 443.42 L 547.47 438.33 L 555.24 432.95 L 563.32 427.45 L 571.82 422.09 L 580.79 417.19 L 590.21 413.15 L 600.00 410.31 L 610.01 408.98 L 620.04 409.32 L 629.88 411.38 L 639.32 415.03 L 648.22 420.03 L 656.52 426.04 L 664.23 432.67 L 671.44 439.55 L 678.29 446.35 L 684.95 452.86 L 691.58 458.99 L 698.28 464.73 L 705.10 470.21 L 712.03 475.58 L 718.95 481.05 L 725.76 486.77 L 732.29 492.88 L 738.42 499.44 L 744.05 506.45 L 749.17 513.88 L 753.77 521.65 L 757.92 529.69 L 761.70 537.93 L 765.14 546.34 L 768.29 554.91 L 771.10 563.63 L 773.47 572.52 L 775.28 581.58 L 776.38 590.76 L 776.62 600.00 Z" fill="none" stroke="#2563EB" stroke-width="2.5" />
            <path d="M 798.08 600.00 L 796.01 610.27 L 793.24 620.31 L 790.05 630.10 L 786.74 639.69 L 783.56 649.19 L 780.73 658.72 L 778.33 668.45 L 776.31 678.50 L 774.50 688.91 L 772.65 699.68 L 770.42 710.67 L 767.48 721.68 L 763.55 732.44 L 758.41 742.64 L 751.99 751.99 L 744.29 760.26 L 735.48 767.30 L 725.76 773.09 L 715.38 777.67 L 704.62 781.21 L 693.70 783.90 L 682.79 785.95 L 672.00 787.56 L 661.37 788.87 L 650.89 789.94 L 640.55 790.79 L 630.31 791.37 L 620.14 791.62 L 610.04 791.48 L 600.00 790.93 L 590.04 789.98 L 580.16 788.72 L 570.35 787.23 L 560.54 785.64 L 550.69 784.04 L 540.72 782.46 L 530.57 780.87 L 520.23 779.17 L 509.73 777.16 L 499.19 774.61 L 488.77 771.28 L 478.70 766.95 L 469.23 761.49 L 460.57 754.85 L 452.91 747.09 L 446.32 738.38 L 440.78 728.94 L 436.16 719.04 L 432.23 708.95 L 428.71 698.90 L 425.31 689.01 L 421.79 679.35 L 417.98 669.87 L 413.83 660.49 L 409.43 651.06 L 404.95 641.46 L 400.69 631.57 L 396.94 621.34 L 394.01 610.80 L 392.14 600.00 L 391.50 589.07 L 392.13 578.15 L 393.99 567.37 L 396.93 556.84 L 400.79 546.62 L 405.37 536.76 L 410.49 527.25 L 416.03 518.09 L 421.92 509.26 L 428.15 500.79 L 434.74 492.68 L 441.72 485.00 L 449.10 477.80 L 456.86 471.12 L 464.95 464.95 L 473.25 459.23 L 481.66 453.86 L 490.05 448.67 L 498.34 443.46 L 506.48 438.03 L 514.52 432.23 L 522.53 426.00 L 530.67 419.38 L 539.08 412.52 L 547.94 405.70 L 557.34 399.28 L 567.32 393.66 L 577.85 389.21 L 588.80 386.26 L 600.00 384.99 L 611.24 385.47 L 622.32 387.60 L 633.08 391.16 L 643.40 395.84 L 653.25 401.26 L 662.68 407.09 L 671.77 413.03 L 680.64 418.89 L 689.38 424.58 L 698.08 430.11 L 706.76 435.60 L 715.38 441.19 L 723.86 447.04 L 732.09 453.30 L 739.95 460.05 L 747.34 467.33 L 754.22 475.12 L 760.58 483.34 L 766.45 491.91 L 771.89 500.76 L 776.98 509.83 L 781.74 519.09 L 786.16 528.54 L 790.18 538.21 L 793.66 548.11 L 796.46 558.24 L 798.39 568.58 L 799.34 579.05 L 799.23 589.56 L 798.08 600.00 Z" fill="none" stroke="#2563EB" stroke-width="2.5" />
            <path d="M 817.27 600.00 L 814.49 611.24 L 811.61 622.24 L 808.93 633.09 L 806.67 643.93 L 804.92 654.91 L 803.63 666.16 L 802.62 677.78 L 801.60 689.76 L 800.23 702.02 L 798.14 714.40 L 795.02 726.65 L 790.63 738.50 L 784.87 749.70 L 777.73 760.03 L 769.32 769.32 L 759.85 777.53 L 749.55 784.68 L 738.66 790.85 L 727.40 796.19 L 715.94 800.82 L 704.38 804.86 L 692.78 808.39 L 681.16 811.42 L 669.51 813.94 L 657.84 815.88 L 646.17 817.20 L 634.51 817.87 L 622.90 817.91 L 611.39 817.41 L 600.00 816.50 L 588.72 815.33 L 577.50 814.06 L 566.29 812.81 L 555.01 811.64 L 543.60 810.50 L 532.00 809.27 L 520.26 807.72 L 508.46 805.60 L 496.75 802.64 L 485.35 798.59 L 474.47 793.30 L 464.35 786.71 L 455.13 778.90 L 446.90 770.03 L 439.64 760.36 L 433.22 750.17 L 427.43 739.74 L 422.01 729.32 L 416.70 719.04 L 411.27 708.96 L 405.58 699.06 L 399.61 689.22 L 393.44 679.29 L 387.25 669.13 L 381.33 658.59 L 375.96 647.62 L 371.44 636.20 L 367.99 624.39 L 365.76 612.28 L 364.80 600.00 L 365.07 587.69 L 366.47 575.46 L 368.85 563.39 L 372.08 551.55 L 376.02 539.98 L 380.61 528.72 L 385.82 517.79 L 391.68 507.25 L 398.19 497.17 L 405.40 487.65 L 413.27 478.74 L 421.75 470.50 L 430.71 462.91 L 439.98 455.92 L 449.38 449.38 L 458.72 443.09 L 467.87 436.84 L 476.77 430.38 L 485.42 423.56 L 493.93 416.27 L 502.45 408.55 L 511.20 400.54 L 520.35 392.51 L 530.08 384.81 L 540.47 377.83 L 551.53 371.97 L 563.18 367.52 L 575.27 364.69 L 587.61 363.55 L 600.00 364.03 L 612.27 365.91 L 624.29 368.92 L 636.00 372.73 L 647.39 377.04 L 658.52 381.60 L 669.45 386.25 L 680.25 390.93 L 690.97 395.68 L 701.60 400.60 L 712.10 405.85 L 722.38 411.55 L 732.35 417.83 L 741.92 424.74 L 751.01 432.29 L 759.59 440.41 L 767.66 449.04 L 775.27 458.07 L 782.48 467.42 L 789.33 477.05 L 795.81 486.95 L 801.89 497.13 L 807.46 507.63 L 812.35 518.49 L 816.38 529.69 L 819.37 541.22 L 821.19 552.98 L 821.79 564.87 L 821.21 576.75 L 819.62 588.49 L 817.27 600.00 Z" fill="none" stroke="#2563EB" stroke-width="2.5" />
            <path d="M 836.37 600.00 L 834.23 612.28 L 832.51 624.44 L 831.33 636.64 L 830.65 649.03 L 830.29 661.71 L 829.97 674.72 L 829.33 688.03 L 828.01 701.52 L 825.68 714.99 L 822.11 728.24 L 817.16 741.03 L 810.82 753.17 L 803.17 764.52 L 794.38 775.02 L 784.66 784.66 L 774.20 793.47 L 763.20 801.54 L 751.79 808.92 L 740.05 815.66 L 728.04 821.77 L 715.76 827.20 L 703.24 831.89 L 690.50 835.76 L 677.58 838.77 L 664.55 840.90 L 651.48 842.21 L 638.46 842.83 L 625.53 842.92 L 612.72 842.67 L 600.00 842.29 L 587.32 841.90 L 574.61 841.56 L 561.79 841.23 L 548.83 840.74 L 535.73 839.87 L 522.56 838.33 L 509.48 835.82 L 496.66 832.10 L 484.33 827.01 L 472.69 820.50 L 461.90 812.65 L 452.04 803.65 L 443.08 793.78 L 434.91 783.35 L 427.34 772.66 L 420.12 761.96 L 413.02 751.41 L 405.82 741.08 L 398.41 730.92 L 390.75 720.81 L 382.93 710.60 L 375.12 700.12 L 367.58 689.22 L 360.57 677.79 L 354.35 665.82 L 349.13 653.32 L 345.03 640.38 L 342.10 627.11 L 340.33 613.61 L 339.64 600.00 L 339.94 586.37 L 341.14 572.79 L 343.21 559.33 L 346.14 546.04 L 349.96 533.00 L 354.75 520.31 L 360.54 508.08 L 367.36 496.42 L 375.19 485.45 L 383.91 475.24 L 393.34 465.79 L 403.25 457.05 L 413.39 448.88 L 423.50 441.08 L 433.41 433.41 L 443.00 425.64 L 452.27 417.57 L 461.31 409.10 L 470.28 400.24 L 479.40 391.12 L 488.91 381.98 L 499.00 373.15 L 509.80 365.01 L 521.34 357.91 L 533.59 352.15 L 546.42 347.91 L 559.65 345.25 L 573.10 344.11 L 586.60 344.29 L 600.00 345.56 L 613.23 347.61 L 626.26 350.20 L 639.10 353.11 L 651.81 356.23 L 664.43 359.54 L 676.97 363.10 L 689.43 367.03 L 701.75 371.46 L 713.87 376.52 L 725.69 382.30 L 737.13 388.83 L 748.15 396.09 L 758.72 404.00 L 768.85 412.48 L 778.58 421.42 L 787.96 430.76 L 796.99 440.48 L 805.64 450.59 L 813.83 461.14 L 821.40 472.18 L 828.15 483.75 L 833.86 495.88 L 838.33 508.51 L 841.43 521.56 L 843.11 534.86 L 843.43 548.26 L 842.61 561.58 L 840.91 574.68 L 838.71 587.49 L 836.37 600.00 Z" fill="none" stroke="#2563EB" stroke-width="2.5" />
            <path d="M 858.46 600.00 L 857.92 613.52 L 857.83 627.10 L 858.04 640.87 L 858.27 654.90 L 858.20 669.18 L 857.48 683.66 L 855.80 698.19 L 852.94 712.62 L 848.77 726.76 L 843.27 740.45 L 836.51 753.59 L 828.63 766.11 L 819.79 777.98 L 810.16 789.23 L 799.86 799.86 L 788.99 809.89 L 777.59 819.31 L 765.69 828.05 L 753.28 836.03 L 740.38 843.14 L 727.02 849.29 L 713.28 854.42 L 699.24 858.53 L 685.03 861.69 L 670.75 864.04 L 656.50 865.79 L 642.31 867.14 L 628.20 868.30 L 614.12 869.40 L 600.00 870.49 L 585.77 871.50 L 571.39 872.25 L 556.84 872.49 L 542.21 871.90 L 527.61 870.18 L 513.22 867.07 L 499.27 862.41 L 485.95 856.17 L 473.41 848.45 L 461.75 839.46 L 450.96 829.50 L 440.95 818.91 L 431.54 808.03 L 422.53 797.10 L 413.68 786.32 L 404.81 775.75 L 395.80 765.36 L 386.63 755.02 L 377.35 744.59 L 368.13 733.87 L 359.16 722.72 L 350.66 711.01 L 342.86 698.71 L 335.91 685.81 L 329.92 672.37 L 324.93 658.47 L 320.92 644.20 L 317.87 629.65 L 315.72 614.90 L 314.46 600.00 L 314.14 585.02 L 314.82 570.03 L 316.62 555.12 L 319.65 540.41 L 324.02 526.05 L 329.77 512.20 L 336.85 498.99 L 345.13 486.53 L 354.41 474.86 L 364.38 463.96 L 374.74 453.71 L 385.19 443.93 L 395.50 434.40 L 405.51 424.88 L 415.19 415.19 L 424.63 405.23 L 433.98 394.98 L 443.48 384.57 L 453.37 374.21 L 463.87 364.21 L 475.12 354.90 L 487.18 346.61 L 500.04 339.59 L 513.57 334.01 L 527.63 329.91 L 542.02 327.22 L 556.57 325.77 L 571.13 325.33 L 585.62 325.64 L 600.00 326.49 L 614.27 327.71 L 628.46 329.24 L 642.60 331.06 L 656.69 333.28 L 670.74 336.00 L 684.69 339.35 L 698.48 343.46 L 712.04 348.36 L 725.30 354.08 L 738.24 360.56 L 750.84 367.73 L 763.13 375.47 L 775.13 383.73 L 786.88 392.45 L 798.35 401.65 L 809.48 411.39 L 820.13 421.74 L 830.11 432.82 L 839.17 444.68 L 847.06 457.36 L 853.55 470.81 L 858.48 484.92 L 861.80 499.50 L 863.60 514.35 L 864.06 529.25 L 863.50 543.99 L 862.30 558.46 L 860.84 572.58 L 859.48 586.40 L 858.46 600.00 Z" fill="none" stroke="#2563EB" stroke-width="2.5" />
            <path d="M 885.04 600.00 L 885.92 614.98 L 886.74 630.14 L 887.19 645.49 L 886.98 661.00 L 885.85 676.59 L 883.59 692.14 L 880.10 707.52 L 875.39 722.61 L 869.51 737.32 L 862.59 751.60 L 854.75 765.43 L 846.10 778.81 L 836.75 791.71 L 826.71 804.13 L 815.99 815.99 L 804.57 827.20 L 792.43 837.64 L 779.57 847.16 L 766.03 855.67 L 751.89 863.09 L 737.28 869.43 L 722.34 874.78 L 707.21 879.30 L 692.01 883.19 L 676.81 886.67 L 661.63 889.93 L 646.42 893.11 L 631.13 896.22 L 615.68 899.17 L 600.00 901.75 L 584.09 903.66 L 567.99 904.58 L 551.82 904.17 L 535.77 902.17 L 520.04 898.42 L 504.83 892.89 L 490.33 885.70 L 476.64 877.08 L 463.78 867.35 L 451.69 856.87 L 440.25 845.99 L 429.27 834.98 L 418.56 824.05 L 407.96 813.28 L 397.36 802.64 L 386.72 792.04 L 376.09 781.32 L 365.58 770.31 L 355.36 758.87 L 345.57 746.90 L 336.38 734.32 L 327.89 721.15 L 320.17 707.42 L 313.23 693.18 L 307.06 678.49 L 301.63 663.42 L 296.96 648.00 L 293.10 632.26 L 290.15 616.24 L 288.26 600.00 L 287.62 583.63 L 288.42 567.25 L 290.80 551.03 L 294.84 535.14 L 300.50 519.75 L 307.64 505.01 L 316.03 491.00 L 325.35 477.72 L 335.24 465.10 L 345.37 452.99 L 355.48 441.21 L 365.39 429.55 L 375.06 417.84 L 384.54 406.00 L 394.00 394.00 L 403.68 381.97 L 413.83 370.10 L 424.66 358.66 L 436.32 347.96 L 448.90 338.28 L 462.35 329.86 L 476.59 322.82 L 491.44 317.19 L 506.72 312.90 L 522.24 309.79 L 537.86 307.64 L 553.47 306.24 L 569.04 305.39 L 584.54 304.98 L 600.00 304.96 L 615.44 305.36 L 630.87 306.27 L 646.28 307.79 L 661.64 310.03 L 676.88 313.08 L 691.97 316.95 L 706.86 321.63 L 721.53 327.04 L 736.00 333.08 L 750.31 339.66 L 764.48 346.73 L 778.53 354.28 L 792.43 362.36 L 806.10 371.11 L 819.35 380.65 L 831.95 391.15 L 843.63 402.71 L 854.09 415.40 L 863.06 429.16 L 870.38 443.90 L 875.95 459.39 L 879.86 475.40 L 882.28 491.64 L 883.51 507.88 L 883.93 523.92 L 883.92 539.65 L 883.84 555.04 L 883.93 570.16 L 884.33 585.10 L 885.04 600.00 Z" fill="none" stroke="#2563EB" stroke-width="2.5" />
            <path d="M 914.84 600.00 L 916.02 616.56 L 916.46 633.26 L 915.94 650.04 L 914.32 666.81 L 911.53 683.47 L 907.60 699.95 L 902.60 716.16 L 896.64 732.07 L 889.82 747.67 L 882.22 762.94 L 873.88 777.86 L 864.78 792.38 L 854.89 806.40 L 844.13 819.82 L 832.48 832.48 L 819.91 844.23 L 806.47 854.97 L 792.26 864.63 L 777.43 873.22 L 762.15 880.85 L 746.58 887.69 L 730.87 893.94 L 715.09 899.83 L 699.28 905.54 L 683.38 911.18 L 667.32 916.74 L 651.01 922.09 L 634.37 927.00 L 617.35 931.14 L 600.00 934.14 L 582.41 935.64 L 564.75 935.38 L 547.23 933.17 L 530.07 929.00 L 513.46 922.97 L 497.55 915.32 L 482.39 906.38 L 467.98 896.52 L 454.24 886.08 L 441.03 875.35 L 428.21 864.54 L 415.65 853.74 L 403.26 842.95 L 391.02 832.10 L 378.95 821.05 L 367.12 809.68 L 355.65 797.87 L 344.64 785.53 L 334.17 772.63 L 324.30 759.18 L 315.02 745.20 L 306.33 730.75 L 298.18 715.86 L 290.57 700.54 L 283.54 684.80 L 277.17 668.62 L 271.64 652.01 L 267.15 634.98 L 263.96 617.61 L 262.32 600.00 L 262.40 582.31 L 264.32 564.72 L 268.06 547.43 L 273.48 530.60 L 280.34 514.35 L 288.31 498.73 L 297.02 483.70 L 306.12 469.16 L 315.33 454.95 L 324.48 440.93 L 333.51 426.94 L 342.48 412.90 L 351.58 398.83 L 361.02 384.82 L 371.07 371.07 L 381.95 357.83 L 393.80 345.37 L 406.70 333.95 L 420.61 323.77 L 435.42 314.95 L 450.96 307.50 L 467.03 301.35 L 483.44 296.36 L 500.03 292.33 L 516.69 289.10 L 533.36 286.50 L 550.02 284.44 L 566.67 282.91 L 583.33 281.94 L 600.00 281.61 L 616.66 282.02 L 633.29 283.24 L 649.84 285.29 L 666.28 288.16 L 682.59 291.78 L 698.77 296.03 L 714.85 300.80 L 730.90 306.00 L 746.95 311.59 L 763.04 317.61 L 779.13 324.16 L 795.12 331.43 L 810.84 339.64 L 826.01 348.99 L 840.35 359.65 L 853.53 371.72 L 865.25 385.20 L 875.32 399.97 L 883.63 415.81 L 890.21 432.45 L 895.21 449.58 L 898.91 466.92 L 901.65 484.21 L 903.78 501.30 L 905.62 518.11 L 907.41 534.66 L 909.29 551.01 L 911.24 567.29 L 913.16 583.59 L 914.84 600.00 Z" fill="none" stroke="#2563EB" stroke-width="2.5" />
            <path d="M 944.98 600.00 L 945.41 618.10 L 944.71 636.23 L 942.86 654.30 L 939.90 672.25 L 935.93 690.01 L 931.05 707.56 L 925.34 724.89 L 918.85 741.96 L 911.57 758.75 L 903.46 775.20 L 894.42 791.20 L 884.38 806.61 L 873.27 821.29 L 861.08 835.08 L 847.87 847.87 L 833.75 859.61 L 818.91 870.33 L 803.54 880.15 L 787.84 889.24 L 771.96 897.84 L 755.99 906.15 L 739.96 914.37 L 723.82 922.57 L 707.46 930.74 L 690.76 938.72 L 673.59 946.23 L 655.90 952.94 L 637.67 958.44 L 618.99 962.36 L 600.00 964.41 L 580.90 964.39 L 561.92 962.26 L 543.28 958.13 L 525.14 952.21 L 507.61 944.81 L 490.74 936.28 L 474.50 926.94 L 458.82 917.09 L 443.62 906.91 L 428.82 896.50 L 414.35 885.88 L 400.21 874.99 L 386.42 863.75 L 373.03 852.07 L 360.12 839.88 L 347.74 827.13 L 335.91 813.85 L 324.63 800.07 L 313.85 785.83 L 303.50 771.18 L 293.54 756.15 L 283.95 740.72 L 274.77 724.84 L 266.12 708.48 L 258.22 691.58 L 251.30 674.12 L 245.68 656.12 L 241.63 637.67 L 239.38 618.90 L 239.04 600.00 L 240.62 581.17 L 243.98 562.58 L 248.89 544.39 L 255.00 526.67 L 261.96 509.42 L 269.42 492.59 L 277.10 476.05 L 284.83 459.68 L 292.58 443.36 L 300.43 427.04 L 308.56 410.74 L 317.21 394.54 L 326.65 378.65 L 337.09 363.28 L 348.69 348.69 L 361.51 335.13 L 375.50 322.77 L 390.55 311.72 L 406.48 302.01 L 423.09 293.58 L 440.16 286.30 L 457.54 280.04 L 475.11 274.65 L 492.79 270.03 L 510.54 266.12 L 528.36 262.94 L 546.23 260.51 L 564.15 258.93 L 582.09 258.23 L 600.00 258.46 L 617.84 259.59 L 635.57 261.53 L 653.19 264.16 L 670.71 267.31 L 688.20 270.84 L 705.71 274.65 L 723.33 278.71 L 741.10 283.07 L 759.01 287.92 L 776.97 293.47 L 794.81 300.02 L 812.28 307.83 L 829.06 317.14 L 844.83 328.08 L 859.30 340.70 L 872.23 354.89 L 883.48 370.44 L 893.06 387.08 L 901.08 404.48 L 907.76 422.31 L 913.39 440.32 L 918.27 458.30 L 922.69 476.13 L 926.83 493.81 L 930.81 511.36 L 934.60 528.88 L 938.11 546.45 L 941.15 564.14 L 943.51 582.00 L 944.98 600.00 Z" fill="none" stroke="#2563EB" stroke-width="2.5" />
            <path d="M 973.45 600.00 L 973.01 619.55 L 971.46 639.04 L 968.90 658.43 L 965.43 677.67 L 961.11 696.76 L 955.96 715.66 L 949.92 734.32 L 942.91 752.68 L 934.82 770.60 L 925.55 787.95 L 915.02 804.57 L 903.23 820.31 L 890.28 835.06 L 876.30 848.78 L 861.52 861.52 L 846.17 873.40 L 830.48 884.62 L 814.63 895.41 L 798.72 906.00 L 782.77 916.57 L 766.72 927.21 L 750.43 937.88 L 733.75 948.42 L 716.50 958.55 L 698.58 967.89 L 679.93 976.05 L 660.61 982.65 L 640.71 987.37 L 620.44 990.01 L 600.00 990.50 L 579.62 988.91 L 559.49 985.45 L 539.76 980.36 L 520.51 973.95 L 501.79 966.52 L 483.58 958.30 L 465.85 949.46 L 448.58 940.09 L 431.76 930.19 L 415.40 919.74 L 399.54 908.68 L 384.24 896.97 L 369.54 884.60 L 355.45 871.60 L 341.98 858.02 L 329.06 843.96 L 316.60 829.49 L 304.52 814.68 L 292.74 799.54 L 281.22 784.05 L 270.03 768.13 L 259.28 751.70 L 249.20 734.66 L 240.08 716.94 L 232.23 698.54 L 225.95 679.51 L 221.47 659.95 L 218.93 640.05 L 218.34 620.00 L 219.55 600.00 L 222.33 580.21 L 226.34 560.73 L 231.22 541.59 L 236.65 522.77 L 242.36 504.17 L 248.21 485.70 L 254.18 467.25 L 260.38 448.79 L 267.00 430.33 L 274.30 411.96 L 282.55 393.85 L 291.99 376.22 L 302.76 359.30 L 314.92 343.31 L 328.43 328.43 L 343.18 314.77 L 358.98 302.36 L 375.63 291.18 L 392.93 281.14 L 410.72 272.16 L 428.88 264.16 L 447.32 257.07 L 466.00 250.91 L 484.88 245.71 L 503.95 241.52 L 523.14 238.41 L 542.41 236.41 L 561.69 235.51 L 580.90 235.62 L 600.00 236.60 L 618.96 238.23 L 637.80 240.33 L 656.59 242.68 L 675.42 245.18 L 694.38 247.77 L 713.54 250.56 L 732.92 253.72 L 752.47 257.55 L 772.04 262.36 L 791.40 268.49 L 810.27 276.21 L 828.34 285.72 L 845.30 297.08 L 860.93 310.21 L 875.07 324.93 L 887.69 340.97 L 898.86 357.99 L 908.75 375.68 L 917.60 393.75 L 925.64 411.99 L 933.08 430.29 L 940.09 448.58 L 946.71 466.91 L 952.92 485.33 L 958.60 503.91 L 963.59 522.72 L 967.71 541.76 L 970.79 561.03 L 972.72 580.47 L 973.45 600.00 Z" fill="none" stroke="#2563EB" stroke-width="2.5" />
            <path d="M 1000.59 600.00 L 1000.03 620.96 L 998.52 641.89 L 996.10 662.74 L 992.72 683.47 L 988.31 704.05 L 982.73 724.36 L 975.85 744.28 L 967.55 763.64 L 957.76 782.29 L 946.50 800.05 L 933.89 816.83 L 920.12 832.58 L 905.45 847.35 L 890.16 861.27 L 874.54 874.54 L 858.79 887.42 L 843.04 900.13 L 827.30 912.85 L 811.51 925.69 L 795.50 938.62 L 779.08 951.47 L 762.06 963.98 L 744.25 975.80 L 725.59 986.52 L 706.05 995.77 L 685.71 1003.25 L 664.74 1008.74 L 643.32 1012.16 L 621.67 1013.55 L 600.00 1013.06 L 578.47 1010.90 L 557.19 1007.30 L 536.25 1002.51 L 515.68 996.68 L 495.52 989.94 L 475.77 982.34 L 456.48 973.87 L 437.71 964.51 L 419.51 954.23 L 401.95 943.03 L 385.08 930.95 L 368.90 918.08 L 353.38 904.55 L 338.45 890.48 L 324.00 876.00 L 309.91 861.20 L 296.10 846.09 L 282.53 830.65 L 269.25 814.79 L 256.41 798.37 L 244.22 781.28 L 232.98 763.41 L 223.03 744.71 L 214.64 725.21 L 208.07 705.02 L 203.44 684.29 L 200.73 663.24 L 199.83 642.06 L 200.47 620.94 L 202.32 600.00 L 205.04 579.30 L 208.30 558.83 L 211.87 538.53 L 215.61 518.30 L 219.54 498.06 L 223.77 477.76 L 228.53 457.40 L 234.08 437.08 L 240.70 416.93 L 248.63 397.13 L 258.01 377.91 L 268.91 359.45 L 281.31 341.93 L 295.08 325.45 L 310.08 310.08 L 326.11 295.81 L 343.00 282.63 L 360.60 270.49 L 378.81 259.40 L 397.56 249.36 L 416.79 240.43 L 436.47 232.70 L 456.53 226.24 L 476.90 221.13 L 497.48 217.39 L 518.16 214.96 L 538.82 213.71 L 559.37 213.44 L 579.76 213.89 L 600.00 214.79 L 620.13 215.90 L 640.25 217.08 L 660.46 218.28 L 680.86 219.58 L 701.51 221.17 L 722.37 223.38 L 743.36 226.55 L 764.27 231.04 L 784.87 237.17 L 804.87 245.15 L 824.00 255.07 L 842.03 266.88 L 858.80 280.41 L 874.27 295.40 L 888.46 311.54 L 901.52 328.51 L 913.60 346.05 L 924.89 363.95 L 935.55 382.09 L 945.67 400.43 L 955.26 418.99 L 964.27 437.81 L 972.58 456.98 L 980.03 476.52 L 986.45 496.45 L 991.72 516.74 L 995.75 537.32 L 998.54 558.11 L 1000.13 579.03 L 1000.59 600.00 Z" fill="none" stroke="#2563EB" stroke-width="2.5" />
            <path d="M 1028.34 600.00 L 1028.43 622.45 L 1027.44 644.93 L 1025.24 667.35 L 1021.63 689.62 L 1016.45 711.59 L 1009.57 733.08 L 1000.90 753.89 L 990.50 773.86 L 978.51 792.86 L 965.17 810.83 L 950.78 827.80 L 935.71 843.91 L 920.25 859.33 L 904.67 874.33 L 889.12 889.12 L 873.63 903.89 L 858.13 918.76 L 842.46 933.72 L 826.39 948.62 L 809.71 963.22 L 792.20 977.21 L 773.74 990.23 L 754.28 1001.92 L 733.87 1012.00 L 712.61 1020.27 L 690.69 1026.65 L 668.29 1031.15 L 645.60 1033.88 L 622.80 1034.98 L 600.00 1034.63 L 577.31 1032.97 L 554.79 1030.12 L 532.51 1026.11 L 510.52 1020.96 L 488.90 1014.61 L 467.74 1007.05 L 447.13 998.24 L 427.15 988.23 L 407.86 977.09 L 389.29 964.96 L 371.39 952.03 L 354.08 938.48 L 337.27 924.45 L 320.82 910.06 L 304.66 895.34 L 288.76 880.24 L 273.17 864.66 L 258.03 848.45 L 243.59 831.45 L 230.14 813.54 L 218.01 794.63 L 207.48 774.76 L 198.79 754.01 L 192.05 732.55 L 187.24 710.60 L 184.22 688.38 L 182.73 666.09 L 182.44 643.89 L 183.00 621.85 L 184.10 600.00 L 185.53 578.28 L 187.16 556.61 L 189.01 534.91 L 191.22 513.11 L 194.01 491.22 L 197.65 469.27 L 202.41 447.38 L 208.52 425.70 L 216.13 404.41 L 225.31 383.67 L 236.03 363.64 L 248.21 344.41 L 261.72 326.07 L 276.41 308.64 L 292.15 292.15 L 308.84 276.64 L 326.41 262.14 L 344.81 248.76 L 364.02 236.62 L 383.98 225.84 L 404.63 216.56 L 425.86 208.87 L 447.52 202.79 L 469.46 198.24 L 491.50 195.07 L 513.50 193.03 L 535.35 191.83 L 557.03 191.15 L 578.55 190.73 L 600.00 190.39 L 621.48 190.07 L 643.11 189.83 L 664.95 189.89 L 687.03 190.55 L 709.28 192.17 L 731.55 195.13 L 753.64 199.75 L 775.31 206.24 L 796.32 214.71 L 816.44 225.11 L 835.55 237.28 L 853.58 250.98 L 870.53 265.92 L 886.51 281.80 L 901.63 298.37 L 916.02 315.46 L 929.79 332.94 L 942.99 350.81 L 955.59 369.08 L 967.52 387.81 L 978.66 407.06 L 988.84 426.88 L 997.92 447.25 L 1005.81 468.15 L 1012.44 489.49 L 1017.84 511.19 L 1022.05 533.15 L 1025.16 555.31 L 1027.24 577.61 L 1028.34 600.00 Z" fill="none" stroke="#2563EB" stroke-width="2.5" />
            <path d="M 1057.90 600.00 L 1058.55 624.03 L 1057.57 648.09 L 1054.74 672.02 L 1049.90 695.63 L 1042.97 718.69 L 1034.01 741.02 L 1023.16 762.44 L 1010.73 782.87 L 997.06 802.31 L 982.53 820.85 L 967.52 838.67 L 952.31 855.97 L 937.10 872.98 L 921.94 889.88 L 906.77 906.77 L 891.44 923.68 L 875.72 940.48 L 859.37 956.99 L 842.18 972.92 L 824.00 987.97 L 804.75 1001.84 L 784.45 1014.29 L 763.19 1025.13 L 741.11 1034.30 L 718.38 1041.80 L 695.16 1047.71 L 671.61 1052.12 L 647.84 1055.14 L 623.94 1056.84 L 600.00 1057.25 L 576.08 1056.35 L 552.27 1054.09 L 528.67 1050.39 L 505.37 1045.18 L 482.51 1038.47 L 460.19 1030.30 L 438.48 1020.78 L 417.41 1010.10 L 396.97 998.47 L 377.09 986.10 L 357.66 973.17 L 338.59 959.80 L 319.79 946.02 L 301.27 931.78 L 283.07 916.93 L 265.36 901.31 L 248.39 884.73 L 232.46 867.03 L 217.89 848.15 L 204.97 828.07 L 193.93 806.90 L 184.87 784.83 L 177.76 762.08 L 172.47 738.91 L 168.72 715.56 L 166.19 692.21 L 164.55 668.97 L 163.50 645.88 L 162.82 622.91 L 162.41 600.00 L 162.28 577.06 L 162.57 554.02 L 163.47 530.86 L 165.25 507.59 L 168.15 484.29 L 172.37 461.06 L 178.06 438.03 L 185.26 415.35 L 193.98 393.12 L 204.13 371.44 L 215.63 350.38 L 228.37 330.00 L 242.30 310.34 L 257.37 291.49 L 273.56 273.56 L 290.90 256.71 L 309.38 241.11 L 328.97 226.95 L 349.60 214.42 L 371.15 203.63 L 393.45 194.61 L 416.26 187.32 L 439.38 181.56 L 462.59 177.10 L 485.75 173.61 L 508.76 170.77 L 531.62 168.29 L 554.38 165.99 L 577.14 163.79 L 600.00 161.76 L 623.05 160.09 L 646.34 159.09 L 669.83 159.12 L 693.41 160.54 L 716.92 163.65 L 740.15 168.67 L 762.88 175.68 L 784.93 184.64 L 806.16 195.39 L 826.50 207.70 L 845.94 221.28 L 864.56 235.86 L 882.43 251.22 L 899.65 267.20 L 916.28 283.72 L 932.33 300.77 L 947.77 318.38 L 962.50 336.63 L 976.39 355.57 L 989.32 375.23 L 1001.16 395.60 L 1011.84 416.64 L 1021.33 438.27 L 1029.67 460.39 L 1036.91 482.93 L 1043.13 505.81 L 1048.38 528.98 L 1052.65 552.42 L 1055.87 576.11 L 1057.90 600.00 Z" fill="none" stroke="#2563EB" stroke-width="2.5" />
            <path d="M 1088.20 600.00 L 1088.38 625.59 L 1086.28 651.11 L 1081.81 676.31 L 1075.01 700.97 L 1066.05 724.88 L 1055.23 747.91 L 1042.93 770.03 L 1029.57 791.25 L 1015.53 811.72 L 1001.14 831.60 L 986.62 851.08 L 972.05 870.31 L 957.39 889.41 L 942.50 908.39 L 927.16 927.16 L 911.15 945.57 L 894.27 963.39 L 876.36 980.37 L 857.34 996.27 L 837.23 1010.90 L 816.10 1024.12 L 794.07 1035.89 L 771.28 1046.20 L 747.87 1055.11 L 723.97 1062.68 L 699.68 1068.97 L 675.07 1073.98 L 650.21 1077.67 L 625.15 1079.97 L 600.00 1080.76 L 574.85 1079.94 L 549.82 1077.43 L 525.05 1073.22 L 500.66 1067.38 L 476.73 1060.03 L 453.33 1051.40 L 430.44 1041.71 L 408.01 1031.21 L 385.96 1020.07 L 364.20 1008.42 L 342.67 996.26 L 321.36 983.51 L 300.37 970.02 L 279.86 955.55 L 260.09 939.91 L 241.37 922.91 L 224.02 904.46 L 208.35 884.55 L 194.57 863.29 L 182.79 840.88 L 173.00 817.57 L 165.06 793.65 L 158.72 769.39 L 153.68 745.02 L 149.62 720.68 L 146.26 696.45 L 143.39 672.32 L 140.92 648.25 L 138.85 624.17 L 137.30 600.00 L 136.45 575.71 L 136.50 551.28 L 137.66 526.77 L 140.09 502.24 L 143.90 477.79 L 149.11 453.50 L 155.70 429.45 L 163.63 405.71 L 172.83 382.34 L 183.26 359.39 L 194.91 336.93 L 207.83 315.07 L 222.06 293.95 L 237.69 273.78 L 254.77 254.77 L 273.31 237.18 L 293.26 221.21 L 314.48 207.02 L 336.77 194.67 L 359.89 184.12 L 383.56 175.21 L 407.52 167.69 L 431.59 161.27 L 455.61 155.61 L 479.54 150.45 L 503.41 145.59 L 527.30 140.97 L 551.30 136.66 L 575.52 132.86 L 600.00 129.86 L 624.74 128.01 L 649.65 127.66 L 674.59 129.07 L 699.38 132.46 L 723.83 137.88 L 747.75 145.27 L 771.02 154.48 L 793.55 165.27 L 815.34 177.37 L 836.41 190.53 L 856.81 204.55 L 876.60 219.29 L 895.83 234.69 L 914.47 250.75 L 932.47 267.53 L 949.76 285.08 L 966.20 303.45 L 981.70 322.68 L 996.17 342.72 L 1009.58 363.53 L 1021.92 385.02 L 1033.25 407.10 L 1043.65 429.70 L 1053.18 452.75 L 1061.85 476.25 L 1069.64 500.18 L 1076.40 524.55 L 1081.93 549.35 L 1085.96 574.53 L 1088.20 600.00 Z" fill="none" stroke="#2563EB" stroke-width="2.5" />
            <path d="M 1116.41 600.00 L 1115.06 626.99 L 1111.16 653.73 L 1104.86 679.96 L 1096.46 705.53 L 1086.35 730.32 L 1074.93 754.31 L 1062.61 777.58 L 1049.73 800.23 L 1036.50 822.41 L 1023.02 844.23 L 1009.27 865.78 L 995.12 887.07 L 980.39 908.03 L 964.88 928.54 L 948.40 948.40 L 930.82 967.41 L 912.10 985.41 L 892.23 1002.23 L 871.31 1017.79 L 849.45 1032.06 L 826.77 1045.05 L 803.39 1056.82 L 779.41 1067.39 L 754.91 1076.77 L 729.93 1084.92 L 704.53 1091.75 L 678.74 1097.14 L 652.65 1100.93 L 626.36 1102.99 L 600.00 1103.25 L 573.71 1101.70 L 547.62 1098.41 L 521.83 1093.55 L 496.41 1087.35 L 471.37 1080.07 L 446.65 1071.95 L 422.20 1063.17 L 397.94 1053.84 L 373.80 1043.94 L 349.81 1033.34 L 326.05 1021.85 L 302.69 1009.21 L 280.01 995.15 L 258.31 979.48 L 237.93 962.07 L 219.16 942.91 L 202.25 922.09 L 187.31 899.84 L 174.36 876.42 L 163.27 852.14 L 153.85 827.32 L 145.83 802.21 L 138.92 776.99 L 132.88 751.78 L 127.53 726.60 L 122.78 701.44 L 118.63 676.24 L 115.18 650.96 L 112.56 625.55 L 110.94 600.00 L 110.44 574.34 L 111.18 548.62 L 113.20 522.90 L 116.50 497.23 L 121.02 471.66 L 126.72 446.22 L 133.56 420.95 L 141.54 395.88 L 150.72 371.08 L 161.20 346.66 L 173.12 322.78 L 186.62 299.66 L 201.81 277.55 L 218.75 256.72 L 237.42 237.42 L 257.68 219.81 L 279.32 204.00 L 302.08 189.95 L 325.66 177.55 L 349.76 166.57 L 374.13 156.71 L 398.62 147.70 L 423.15 139.29 L 447.71 131.30 L 472.37 123.69 L 497.24 116.55 L 522.40 110.08 L 547.93 104.57 L 573.81 100.36 L 600.00 97.77 L 626.36 97.07 L 652.72 98.43 L 678.89 101.89 L 704.71 107.38 L 730.03 114.74 L 754.75 123.74 L 778.83 134.12 L 802.29 145.66 L 825.13 158.16 L 847.38 171.53 L 869.05 185.70 L 890.11 200.70 L 910.49 216.57 L 930.12 233.36 L 948.91 251.09 L 966.77 269.76 L 983.66 289.32 L 999.58 309.69 L 1014.59 330.76 L 1028.76 352.45 L 1042.20 374.69 L 1054.95 397.44 L 1067.03 420.73 L 1078.35 444.57 L 1088.76 469.04 L 1097.98 494.15 L 1105.69 519.91 L 1111.54 546.24 L 1115.20 573.00 L 1116.41 600.00 Z" fill="none" stroke="#2563EB" stroke-width="2.5" />
            <path d="M 1140.35 600.00 L 1137.36 628.16 L 1132.11 655.93 L 1124.96 683.15 L 1116.30 709.74 L 1106.52 735.72 L 1095.94 761.14 L 1084.75 786.08 L 1073.05 810.62 L 1060.83 834.80 L 1047.97 858.64 L 1034.31 882.04 L 1019.67 904.91 L 1003.91 927.08 L 986.94 948.40 L 968.72 968.72 L 949.29 987.93 L 928.76 1005.98 L 907.23 1022.87 L 884.83 1038.60 L 861.67 1053.22 L 837.82 1066.74 L 813.32 1079.12 L 788.21 1090.29 L 762.50 1100.12 L 736.24 1108.45 L 709.49 1115.10 L 682.35 1119.94 L 654.96 1122.89 L 627.46 1123.96 L 600.00 1123.25 L 572.70 1120.97 L 545.62 1117.35 L 518.80 1112.68 L 492.19 1107.22 L 465.72 1101.14 L 439.32 1094.51 L 412.94 1087.30 L 386.58 1079.35 L 360.32 1070.41 L 334.33 1060.16 L 308.86 1048.32 L 284.22 1034.63 L 260.75 1018.94 L 238.74 1001.22 L 218.45 981.55 L 200.02 960.15 L 183.49 937.28 L 168.79 913.29 L 155.78 888.48 L 144.24 863.13 L 133.95 837.46 L 124.71 811.61 L 116.40 785.64 L 108.93 759.56 L 102.34 733.35 L 96.68 706.98 L 92.06 680.45 L 88.59 653.75 L 86.33 626.92 L 85.33 600.00 L 85.55 573.04 L 86.95 546.08 L 89.44 519.14 L 92.96 492.22 L 97.48 465.35 L 103.03 438.52 L 109.71 411.80 L 117.69 385.26 L 127.17 359.08 L 138.35 333.47 L 151.40 308.68 L 166.42 284.99 L 183.40 262.64 L 202.23 241.85 L 222.70 222.70 L 244.53 205.21 L 267.39 189.27 L 290.98 174.67 L 315.03 161.18 L 339.35 148.54 L 363.85 136.52 L 388.52 125.01 L 413.43 113.98 L 438.69 103.54 L 464.39 93.90 L 490.61 85.36 L 517.36 78.25 L 544.60 72.87 L 572.20 69.49 L 600.00 68.23 L 627.82 69.16 L 655.47 72.19 L 682.81 77.17 L 709.71 83.87 L 736.09 92.09 L 761.94 101.60 L 787.22 112.27 L 811.93 123.99 L 836.04 136.75 L 859.49 150.54 L 882.23 165.41 L 904.15 181.38 L 925.19 198.43 L 945.29 216.51 L 964.46 235.54 L 982.73 255.39 L 1000.20 275.92 L 1016.99 297.04 L 1033.20 318.67 L 1048.93 340.81 L 1064.17 363.50 L 1078.83 386.81 L 1092.71 410.87 L 1105.52 435.75 L 1116.89 461.50 L 1126.42 488.11 L 1133.76 515.46 L 1138.61 543.39 L 1140.81 571.66 L 1140.35 600.00 Z" fill="none" stroke="#2563EB" stroke-width="2.5" />
            <path d="M 1160.35 600.00 L 1156.76 629.18 L 1151.52 657.97 L 1144.99 686.32 L 1137.44 714.24 L 1129.05 741.76 L 1119.88 768.92 L 1109.90 795.73 L 1099.01 822.17 L 1087.05 848.16 L 1073.87 873.59 L 1059.37 898.32 L 1043.49 922.21 L 1026.22 945.15 L 1007.65 967.05 L 987.88 987.88 L 967.03 1007.63 L 945.23 1026.33 L 922.57 1043.97 L 899.09 1060.56 L 874.84 1076.03 L 849.80 1090.26 L 823.99 1103.09 L 797.43 1114.33 L 770.19 1123.80 L 742.38 1131.35 L 714.13 1136.94 L 685.62 1140.57 L 657.01 1142.40 L 628.44 1142.66 L 600.00 1141.62 L 571.72 1139.58 L 543.58 1136.82 L 515.50 1133.51 L 487.40 1129.73 L 459.22 1125.39 L 430.94 1120.32 L 402.61 1114.21 L 374.39 1106.73 L 346.49 1097.54 L 319.20 1086.35 L 292.84 1072.98 L 267.71 1057.36 L 244.04 1039.57 L 222.03 1019.78 L 201.74 998.26 L 183.16 975.33 L 166.19 951.29 L 150.71 926.43 L 136.55 900.97 L 123.61 875.05 L 111.79 848.76 L 101.08 822.13 L 91.51 795.19 L 83.14 767.94 L 76.06 740.39 L 70.32 712.59 L 65.94 684.59 L 62.89 656.45 L 61.08 628.24 L 60.41 600.00 L 60.75 571.74 L 62.02 543.46 L 64.19 515.14 L 67.31 486.77 L 71.52 458.40 L 77.03 430.08 L 84.08 401.96 L 92.92 374.23 L 103.76 347.15 L 116.72 320.98 L 131.83 295.97 L 148.97 272.30 L 167.93 250.11 L 188.41 229.41 L 210.10 210.10 L 232.65 192.02 L 255.81 174.96 L 279.37 158.69 L 303.24 143.03 L 327.42 127.88 L 351.99 113.26 L 377.07 99.28 L 402.76 86.18 L 429.17 74.24 L 456.32 63.79 L 484.18 55.13 L 512.65 48.50 L 541.57 44.03 L 570.74 41.78 L 600.00 41.67 L 629.16 43.57 L 658.09 47.32 L 686.68 52.71 L 714.87 59.60 L 742.58 67.87 L 769.78 77.47 L 796.39 88.39 L 822.33 100.64 L 847.50 114.25 L 871.82 129.20 L 895.20 145.44 L 917.61 162.84 L 939.08 181.27 L 959.67 200.54 L 979.52 220.48 L 998.77 240.95 L 1017.56 261.87 L 1036.00 283.23 L 1054.09 305.11 L 1071.76 327.63 L 1088.79 350.95 L 1104.89 375.21 L 1119.66 400.52 L 1132.70 426.92 L 1143.62 454.34 L 1152.12 482.64 L 1158.02 511.62 L 1161.26 541.01 L 1161.96 570.55 L 1160.35 600.00 Z" fill="none" stroke="#2563EB" stroke-width="2.5" />
            <path d="M 1179.14 600.00 L 1176.32 630.20 L 1172.33 660.15 L 1167.31 689.85 L 1161.27 719.30 L 1154.18 748.49 L 1145.91 777.38 L 1136.31 805.87 L 1125.27 833.87 L 1112.70 861.23 L 1098.55 887.84 L 1082.89 913.59 L 1065.78 938.41 L 1047.37 962.27 L 1027.77 985.16 L 1007.09 1007.09 L 985.40 1028.03 L 962.74 1047.95 L 939.10 1066.73 L 914.46 1084.23 L 888.82 1100.25 L 862.19 1114.57 L 834.63 1126.99 L 806.28 1137.39 L 777.31 1145.69 L 747.90 1151.97 L 718.26 1156.39 L 688.57 1159.20 L 658.93 1160.73 L 629.42 1161.30 L 600.00 1161.19 L 570.62 1160.60 L 541.18 1159.60 L 511.61 1158.09 L 481.84 1155.88 L 451.92 1152.66 L 421.93 1148.05 L 392.06 1141.69 L 362.57 1133.28 L 333.72 1122.61 L 305.79 1109.58 L 279.04 1094.23 L 253.64 1076.72 L 229.70 1057.29 L 207.24 1036.21 L 186.24 1013.76 L 166.63 990.21 L 148.35 965.74 L 131.34 940.50 L 115.61 914.57 L 101.17 888.00 L 88.10 860.83 L 76.47 833.09 L 66.35 804.85 L 57.78 776.18 L 50.72 747.18 L 45.11 717.95 L 40.80 688.57 L 37.63 659.11 L 35.48 629.59 L 34.22 600.00 L 33.83 570.33 L 34.37 540.55 L 36.02 510.67 L 38.99 480.75 L 43.59 450.91 L 50.07 421.32 L 58.68 392.21 L 69.55 363.83 L 82.70 336.42 L 98.03 310.19 L 115.30 285.23 L 134.22 261.59 L 154.44 239.20 L 175.63 217.90 L 197.50 197.50 L 219.87 177.83 L 242.65 158.72 L 265.86 140.09 L 289.57 121.98 L 313.93 104.52 L 339.08 87.92 L 365.14 72.49 L 392.14 58.51 L 420.09 46.29 L 448.88 36.03 L 478.39 27.89 L 508.44 21.90 L 538.83 18.04 L 569.40 16.21 L 600.00 16.27 L 630.50 18.11 L 660.79 21.64 L 690.79 26.80 L 720.39 33.60 L 749.50 42.06 L 777.99 52.21 L 805.73 64.06 L 832.60 77.56 L 858.52 92.62 L 883.45 109.05 L 907.40 126.65 L 930.46 145.16 L 952.77 164.36 L 974.50 184.07 L 995.82 204.18 L 1016.83 224.68 L 1037.58 245.66 L 1057.98 267.26 L 1077.86 289.68 L 1096.90 313.12 L 1114.74 337.73 L 1130.98 363.59 L 1145.23 390.71 L 1157.19 418.96 L 1166.67 448.16 L 1173.61 478.08 L 1178.09 508.44 L 1180.32 539.01 L 1180.57 569.57 L 1179.14 600.00 Z" fill="none" stroke="#2563EB" stroke-width="2.5" />
            <path d="M 1199.54 600.00 L 1198.18 631.35 L 1195.64 662.60 L 1191.85 693.74 L 1186.68 724.70 L 1179.98 755.40 L 1171.65 785.74 L 1161.62 815.58 L 1149.89 844.82 L 1136.51 873.37 L 1121.60 901.14 L 1105.26 928.12 L 1087.63 954.29 L 1068.78 979.61 L 1048.75 1004.06 L 1027.54 1027.54 L 1005.09 1049.90 L 981.37 1070.96 L 956.34 1090.47 L 930.02 1108.18 L 902.47 1123.89 L 873.84 1137.44 L 844.33 1148.78 L 814.19 1157.97 L 783.65 1165.22 L 752.94 1170.79 L 722.23 1175.03 L 691.59 1178.29 L 661.05 1180.86 L 630.55 1182.96 L 600.00 1184.64 L 569.30 1185.85 L 538.37 1186.37 L 507.20 1185.90 L 475.85 1184.06 L 444.45 1180.50 L 413.20 1174.91 L 382.33 1167.06 L 352.08 1156.84 L 322.67 1144.29 L 294.29 1129.51 L 267.04 1112.71 L 241.00 1094.12 L 216.18 1073.98 L 192.58 1052.48 L 170.21 1029.79 L 149.09 1006.00 L 129.27 981.19 L 110.84 955.39 L 93.91 928.66 L 78.59 901.04 L 64.93 872.63 L 52.97 843.56 L 42.64 813.95 L 33.86 783.95 L 26.44 753.69 L 20.21 723.24 L 15.02 692.65 L 10.74 661.93 L 7.36 631.06 L 4.97 600.00 L 3.75 568.75 L 3.95 537.35 L 5.89 505.90 L 9.87 474.56 L 16.12 443.55 L 24.78 413.10 L 35.87 383.45 L 49.26 354.79 L 64.72 327.26 L 81.92 300.89 L 100.51 275.63 L 120.13 251.35 L 140.50 227.91 L 161.44 205.11 L 182.85 182.85 L 204.76 161.05 L 227.29 139.74 L 250.57 119.04 L 274.76 99.18 L 300.01 80.40 L 326.37 62.98 L 353.87 47.18 L 382.43 33.21 L 411.93 21.19 L 442.23 11.18 L 473.14 3.17 L 504.51 -2.89 L 536.19 -7.07 L 568.06 -9.41 L 600.00 -9.92 L 631.89 -8.58 L 663.62 -5.32 L 695.04 -0.06 L 725.99 7.25 L 756.31 16.64 L 785.84 28.04 L 814.46 41.30 L 842.11 56.22 L 868.78 72.49 L 894.54 89.84 L 919.54 107.95 L 943.93 126.62 L 967.88 145.70 L 991.52 165.17 L 1014.90 185.10 L 1037.94 205.68 L 1060.49 227.11 L 1082.26 249.62 L 1102.92 273.40 L 1122.08 298.58 L 1139.39 325.17 L 1154.56 353.09 L 1167.41 382.19 L 1177.88 412.23 L 1186.04 442.97 L 1192.07 474.15 L 1196.19 505.57 L 1198.67 537.08 L 1199.73 568.57 L 1199.54 600.00 Z" fill="none" stroke="#2563EB" stroke-width="2.5" />
            <path d="M 1222.33 600.00 L 1221.99 632.60 L 1220.12 665.18 L 1216.60 697.66 L 1211.34 729.94 L 1204.30 761.92 L 1195.49 793.49 L 1184.99 824.56 L 1172.91 855.08 L 1159.36 885.01 L 1144.44 914.33 L 1128.18 943.00 L 1110.58 970.96 L 1091.57 998.07 L 1071.07 1024.15 L 1048.97 1048.97 L 1025.21 1072.24 L 999.78 1093.69 L 972.76 1113.06 L 944.31 1130.19 L 914.67 1145.02 L 884.11 1157.60 L 852.94 1168.11 L 821.43 1176.86 L 789.81 1184.17 L 758.20 1190.40 L 726.66 1195.87 L 695.15 1200.78 L 663.61 1205.21 L 631.92 1209.10 L 600.00 1212.26 L 567.80 1214.41 L 535.34 1215.21 L 502.70 1214.31 L 470.04 1211.42 L 437.53 1206.34 L 405.38 1198.97 L 373.78 1189.32 L 342.89 1177.48 L 312.82 1163.63 L 283.65 1147.93 L 255.45 1130.57 L 228.24 1111.69 L 202.09 1091.38 L 177.07 1069.71 L 153.30 1046.70 L 130.92 1022.36 L 110.06 996.75 L 90.85 969.92 L 73.36 942.00 L 57.63 913.14 L 43.59 883.51 L 31.11 853.29 L 20.03 822.63 L 10.16 791.65 L 1.34 760.41 L -6.52 728.92 L -13.44 697.16 L -19.29 665.09 L -23.86 632.70 L -26.88 600.00 L -27.99 567.09 L -26.90 534.11 L -23.35 501.27 L -17.21 468.81 L -8.47 436.96 L 2.73 405.94 L 16.13 375.87 L 31.40 346.84 L 48.15 318.82 L 66.02 291.71 L 84.73 265.38 L 104.08 239.70 L 123.99 214.53 L 144.47 189.84 L 165.65 165.65 L 187.66 142.05 L 210.68 119.23 L 234.85 97.41 L 260.25 76.82 L 286.89 57.68 L 314.74 40.15 L 343.70 24.34 L 373.64 10.31 L 404.42 -1.94 L 435.90 -12.41 L 467.98 -21.11 L 500.53 -28.00 L 533.47 -33.02 L 566.67 -36.05 L 600.00 -36.94 L 633.31 -35.57 L 666.41 -31.81 L 699.09 -25.65 L 731.17 -17.13 L 762.49 -6.42 L 792.93 6.22 L 822.46 20.46 L 851.12 35.97 L 879.01 52.41 L 906.28 69.51 L 933.07 87.12 L 959.50 105.19 L 985.62 123.80 L 1011.38 143.11 L 1036.63 163.37 L 1061.11 184.82 L 1084.51 207.65 L 1106.50 232.01 L 1126.73 257.94 L 1144.96 285.36 L 1161.03 314.14 L 1174.88 344.05 L 1186.58 374.83 L 1196.27 406.26 L 1204.16 438.12 L 1210.46 470.24 L 1215.35 502.54 L 1218.94 534.95 L 1221.28 567.44 L 1222.33 600.00 Z" fill="none" stroke="#2563EB" stroke-width="2.5" />
            <path d="M 1245.99 600.00 L 1245.69 633.84 L 1243.61 667.65 L 1239.73 701.32 L 1234.11 734.78 L 1226.84 767.96 L 1218.03 800.81 L 1207.79 833.31 L 1196.16 865.43 L 1183.15 897.13 L 1168.68 928.33 L 1152.63 958.88 L 1134.83 988.57 L 1115.12 1017.14 L 1093.40 1044.26 L 1069.63 1069.63 L 1043.86 1092.96 L 1016.27 1114.05 L 987.11 1132.81 L 956.70 1149.27 L 925.39 1163.60 L 893.52 1176.06 L 861.33 1186.97 L 829.04 1196.67 L 796.72 1205.44 L 764.39 1213.51 L 731.99 1220.94 L 699.42 1227.70 L 666.59 1233.60 L 633.46 1238.41 L 600.00 1241.81 L 566.28 1243.51 L 532.39 1243.26 L 498.49 1240.88 L 464.75 1236.31 L 431.31 1229.56 L 398.32 1220.71 L 365.88 1209.90 L 334.08 1197.27 L 302.98 1182.94 L 272.65 1166.98 L 243.19 1149.44 L 214.70 1130.32 L 187.34 1109.59 L 161.28 1087.25 L 136.67 1063.33 L 113.67 1037.90 L 92.35 1011.09 L 72.74 983.08 L 54.78 954.07 L 38.34 924.27 L 23.25 893.87 L 9.33 862.98 L -3.56 831.69 L -15.50 799.99 L -26.46 767.86 L -36.30 735.25 L -44.77 702.12 L -51.53 668.48 L -56.25 634.39 L -58.59 600.00 L -58.28 565.50 L -55.18 531.14 L -49.31 497.16 L -40.79 463.80 L -29.90 431.22 L -16.99 399.53 L -2.44 368.74 L 13.38 338.82 L 30.17 309.66 L 47.74 281.15 L 65.99 253.21 L 84.95 225.79 L 104.69 198.91 L 125.38 172.65 L 147.15 147.15 L 170.14 122.59 L 194.41 99.14 L 219.98 76.95 L 246.83 56.16 L 274.86 36.84 L 303.97 19.01 L 334.07 2.71 L 365.05 -12.06 L 396.85 -25.24 L 429.39 -36.74 L 462.60 -46.41 L 496.41 -54.05 L 530.69 -59.45 L 565.28 -62.41 L 600.00 -62.77 L 634.61 -60.46 L 668.90 -55.54 L 702.66 -48.16 L 735.74 -38.59 L 768.05 -27.18 L 799.60 -14.31 L 830.44 -0.33 L 860.69 14.49 L 890.45 29.96 L 919.83 46.04 L 948.85 62.81 L 977.48 80.44 L 1005.57 99.16 L 1032.89 119.23 L 1059.15 140.85 L 1084.04 164.17 L 1107.26 189.23 L 1128.59 215.95 L 1147.89 244.20 L 1165.10 273.74 L 1180.29 304.33 L 1193.59 335.72 L 1205.16 367.70 L 1215.18 400.12 L 1223.78 432.86 L 1231.05 465.87 L 1236.98 499.11 L 1241.52 532.57 L 1244.56 566.22 L 1245.99 600.00 Z" fill="none" stroke="#2563EB" stroke-width="2.5" />
            <path d="M 1268.56 600.00 L 1267.83 635.00 L 1265.44 669.94 L 1261.50 704.77 L 1256.14 739.47 L 1249.45 774.02 L 1241.45 808.42 L 1232.09 842.64 L 1221.24 876.60 L 1208.70 910.15 L 1194.23 943.08 L 1177.61 975.11 L 1158.67 1005.90 L 1137.32 1035.11 L 1113.60 1062.45 L 1087.67 1087.67 L 1059.78 1110.64 L 1030.29 1131.37 L 999.57 1149.97 L 967.99 1166.65 L 935.85 1181.70 L 903.38 1195.41 L 870.72 1208.04 L 837.91 1219.76 L 804.91 1230.65 L 771.66 1240.66 L 738.08 1249.64 L 704.11 1257.36 L 669.74 1263.56 L 635.01 1268.01 L 600.00 1270.50 L 564.84 1270.90 L 529.67 1269.17 L 494.62 1265.36 L 459.81 1259.55 L 425.34 1251.84 L 391.29 1242.35 L 357.73 1231.15 L 324.74 1218.25 L 292.43 1203.65 L 260.93 1187.28 L 230.42 1169.10 L 201.08 1149.07 L 173.08 1127.20 L 146.57 1103.58 L 121.64 1078.36 L 98.31 1051.73 L 76.50 1023.92 L 56.11 995.16 L 36.95 965.65 L 18.85 935.53 L 1.70 904.85 L -14.57 873.62 L -29.88 841.79 L -44.06 809.27 L -56.83 776.00 L -67.83 741.95 L -76.68 707.18 L -83.02 671.79 L -86.57 635.98 L -87.18 600.00 L -84.84 564.11 L -79.69 528.56 L -71.99 493.57 L -62.07 459.27 L -50.32 425.75 L -37.08 393.00 L -22.66 360.98 L -7.25 329.64 L 9.06 298.90 L 26.27 268.76 L 44.45 239.22 L 63.71 210.37 L 84.18 182.29 L 105.93 155.14 L 129.02 129.02 L 153.43 104.03 L 179.12 80.25 L 206.00 57.71 L 234.00 36.41 L 263.04 16.37 L 293.07 -2.39 L 324.05 -19.78 L 355.99 -35.67 L 388.85 -49.84 L 422.61 -62.03 L 457.17 -71.98 L 492.39 -79.42 L 528.09 -84.16 L 564.04 -86.09 L 600.00 -85.24 L 635.73 -81.78 L 671.05 -75.95 L 705.82 -68.12 L 740.00 -58.66 L 773.61 -47.92 L 806.71 -36.18 L 839.38 -23.61 L 871.70 -10.24 L 903.67 4.01 L 935.26 19.32 L 966.31 35.93 L 996.61 54.11 L 1025.90 74.06 L 1053.88 95.91 L 1080.29 119.71 L 1104.92 145.37 L 1127.62 172.74 L 1148.37 201.59 L 1167.19 231.67 L 1184.19 262.72 L 1199.50 294.54 L 1213.26 326.96 L 1225.55 359.87 L 1236.43 393.21 L 1245.86 426.94 L 1253.79 461.03 L 1260.10 495.45 L 1264.70 530.14 L 1267.53 565.02 L 1268.56 600.00 Z" fill="none" stroke="#2563EB" stroke-width="2.5" />
            <path d="M 1289.86 600.00 L 1289.20 636.12 L 1287.26 672.23 L 1284.14 708.36 L 1279.84 744.50 L 1274.27 780.67 L 1267.25 816.80 L 1258.51 852.78 L 1247.74 888.39 L 1234.67 923.38 L 1219.05 957.41 L 1200.76 990.14 L 1179.80 1021.25 L 1156.30 1050.48 L 1130.51 1077.67 L 1102.78 1102.78 L 1073.49 1125.86 L 1043.02 1147.08 L 1011.70 1166.66 L 979.79 1184.83 L 947.44 1201.79 L 914.72 1217.68 L 881.62 1232.53 L 848.09 1246.29 L 814.06 1258.81 L 779.50 1269.89 L 744.39 1279.32 L 708.79 1286.89 L 672.78 1292.45 L 636.47 1295.93 L 600.00 1297.31 L 563.49 1296.66 L 527.05 1294.06 L 490.78 1289.61 L 454.74 1283.39 L 419.02 1275.42 L 383.71 1265.69 L 348.91 1254.11 L 314.78 1240.61 L 281.50 1225.09 L 249.26 1207.51 L 218.22 1187.88 L 188.55 1166.31 L 160.33 1142.95 L 133.56 1118.04 L 108.17 1091.83 L 84.04 1064.57 L 61.00 1036.47 L 38.88 1007.68 L 17.57 978.24 L -2.97 948.12 L -22.64 917.25 L -41.25 885.50 L -58.48 852.77 L -73.96 818.98 L -87.28 784.15 L -98.05 748.38 L -105.99 711.82 L -110.92 674.72 L -112.81 637.36 L -111.76 600.00 L -108.02 562.89 L -101.88 526.23 L -93.70 490.13 L -83.78 454.66 L -72.41 419.83 L -59.75 385.63 L -45.90 352.06 L -30.87 319.12 L -14.59 286.85 L 2.99 255.31 L 21.95 224.61 L 42.32 194.83 L 64.11 166.05 L 87.26 138.32 L 111.68 111.68 L 137.28 86.10 L 163.98 61.57 L 191.74 38.07 L 220.52 15.65 L 250.35 -5.61 L 281.27 -25.54 L 313.32 -43.89 L 346.51 -60.36 L 380.79 -74.65 L 416.07 -86.45 L 452.16 -95.54 L 488.85 -101.79 L 525.88 -105.23 L 563.00 -105.98 L 600.00 -104.32 L 636.71 -100.56 L 673.06 -95.09 L 709.00 -88.22 L 744.59 -80.23 L 779.86 -71.26 L 814.87 -61.31 L 849.63 -50.30 L 884.06 -38.00 L 918.03 -24.18 L 951.35 -8.56 L 983.75 9.07 L 1014.98 28.83 L 1044.76 50.76 L 1072.91 74.78 L 1099.27 100.73 L 1123.80 128.37 L 1146.51 157.44 L 1167.46 187.71 L 1186.74 218.96 L 1204.43 251.03 L 1220.57 283.80 L 1235.17 317.21 L 1248.17 351.19 L 1259.50 385.72 L 1269.07 420.72 L 1276.81 456.14 L 1282.70 491.87 L 1286.76 527.82 L 1289.11 563.89 L 1289.86 600.00 Z" fill="none" stroke="#2563EB" stroke-width="2.5" />
            <path d="M 1311.93 600.00 L 1312.29 637.33 L 1311.61 674.79 L 1309.77 712.42 L 1306.54 750.18 L 1301.63 788.00 L 1294.67 825.71 L 1285.32 863.07 L 1273.32 899.78 L 1258.48 935.51 L 1240.76 969.95 L 1220.29 1002.82 L 1197.28 1033.95 L 1172.06 1063.24 L 1145.01 1090.73 L 1116.50 1116.50 L 1086.86 1140.71 L 1056.33 1163.52 L 1025.09 1185.09 L 993.20 1205.47 L 960.66 1224.68 L 927.43 1242.63 L 893.48 1259.17 L 858.77 1274.12 L 823.31 1287.27 L 787.16 1298.48 L 750.41 1307.63 L 713.19 1314.67 L 675.64 1319.62 L 637.87 1322.56 L 600.00 1323.58 L 562.12 1322.74 L 524.32 1320.09 L 486.66 1315.62 L 449.24 1309.25 L 412.20 1300.87 L 375.68 1290.37 L 339.88 1277.64 L 304.98 1262.63 L 271.17 1245.37 L 238.60 1225.96 L 207.35 1204.63 L 177.42 1181.63 L 148.75 1157.25 L 121.19 1131.77 L 94.58 1105.42 L 68.75 1078.34 L 43.59 1050.57 L 19.07 1022.07 L -4.70 992.70 L -27.52 962.30 L -49.08 930.72 L -68.99 897.85 L -86.82 863.65 L -102.20 828.16 L -114.81 791.53 L -124.46 753.99 L -131.08 715.79 L -134.76 677.23 L -135.68 638.56 L -134.08 600.00 L -130.26 561.73 L -124.48 523.85 L -116.95 486.45 L -107.81 449.55 L -97.14 413.20 L -84.92 377.46 L -71.13 342.38 L -55.73 308.05 L -38.70 274.56 L -20.06 242.01 L 0.12 210.43 L 21.74 179.87 L 44.67 150.31 L 68.79 121.70 L 94.01 94.01 L 120.27 67.21 L 147.59 41.33 L 176.03 16.46 L 205.67 -7.21 L 236.61 -29.42 L 268.88 -49.85 L 302.51 -68.18 L 337.40 -84.08 L 373.42 -97.33 L 410.35 -107.79 L 447.92 -115.46 L 485.89 -120.48 L 524.00 -123.10 L 562.08 -123.64 L 600.00 -122.44 L 637.72 -119.82 L 675.25 -116.00 L 712.63 -111.10 L 749.88 -105.11 L 787.00 -97.89 L 823.94 -89.21 L 860.57 -78.81 L 896.71 -66.42 L 932.12 -51.81 L 966.54 -34.86 L 999.73 -15.54 L 1031.50 6.09 L 1061.69 29.86 L 1090.22 55.56 L 1117.07 82.93 L 1142.25 111.76 L 1165.79 141.84 L 1187.70 173.01 L 1207.98 205.17 L 1226.57 238.25 L 1243.40 272.17 L 1258.36 306.88 L 1271.38 342.28 L 1282.41 378.27 L 1291.46 414.72 L 1298.63 451.50 L 1304.07 488.49 L 1307.96 525.59 L 1310.53 562.76 L 1311.93 600.00 Z" fill="none" stroke="#2563EB" stroke-width="2.5" />
            <path d="M 1337.28 600.00 L 1339.05 638.73 L 1339.51 677.73 L 1338.31 716.94 L 1335.08 756.25 L 1329.44 795.45 L 1321.10 834.30 L 1309.85 872.48 L 1295.63 909.71 L 1278.52 945.72 L 1258.74 980.32 L 1236.59 1013.40 L 1212.41 1044.94 L 1186.56 1074.98 L 1159.34 1103.63 L 1130.97 1130.97 L 1101.62 1157.10 L 1071.33 1182.04 L 1040.10 1205.74 L 1007.89 1228.10 L 974.68 1248.96 L 940.44 1268.14 L 905.19 1285.47 L 869.01 1300.80 L 832.01 1314.06 L 794.32 1325.22 L 756.08 1334.32 L 717.43 1341.42 L 678.47 1346.60 L 639.30 1349.90 L 600.00 1351.31 L 560.65 1350.78 L 521.36 1348.19 L 482.26 1343.38 L 443.52 1336.20 L 405.33 1326.53 L 367.90 1314.33 L 331.44 1299.63 L 296.09 1282.58 L 261.96 1263.44 L 229.04 1242.52 L 197.28 1220.14 L 166.53 1196.62 L 136.64 1172.21 L 107.42 1147.06 L 78.78 1121.22 L 50.69 1094.60 L 23.21 1067.07 L -3.44 1038.43 L -28.97 1008.46 L -52.99 977.01 L -75.12 943.99 L -94.97 909.42 L -112.23 873.40 L -126.69 836.12 L -138.28 797.82 L -147.03 758.79 L -153.06 719.27 L -156.56 679.52 L -157.74 639.71 L -156.80 600.00 L -153.86 560.49 L -149.01 521.28 L -142.28 482.43 L -133.65 444.06 L -123.08 406.25 L -110.56 369.12 L -96.12 332.79 L -79.81 297.33 L -61.78 262.81 L -42.17 229.24 L -21.17 196.61 L 1.08 164.86 L 24.45 133.93 L 48.92 103.81 L 74.51 74.51 L 101.29 46.13 L 129.41 18.87 L 158.98 -7.01 L 190.10 -31.20 L 222.80 -53.34 L 257.03 -73.13 L 292.65 -90.32 L 329.45 -104.80 L 367.17 -116.57 L 405.53 -125.76 L 444.28 -132.61 L 483.20 -137.43 L 522.16 -140.56 L 561.10 -142.26 L 600.00 -142.76 L 638.89 -142.13 L 677.81 -140.33 L 716.76 -137.21 L 755.70 -132.53 L 794.53 -125.99 L 833.08 -117.34 L 871.14 -106.34 L 908.48 -92.86 L 944.87 -76.85 L 980.12 -58.39 L 1014.07 -37.62 L 1046.62 -14.72 L 1077.69 10.11 L 1107.25 36.65 L 1135.25 64.75 L 1161.66 94.28 L 1186.38 125.16 L 1209.31 157.31 L 1230.33 190.66 L 1249.30 225.12 L 1266.15 260.58 L 1280.82 296.88 L 1293.38 333.84 L 1303.94 371.28 L 1312.69 409.03 L 1319.90 446.98 L 1325.79 485.05 L 1330.59 523.21 L 1334.42 561.51 L 1337.28 600.00 Z" fill="none" stroke="#2563EB" stroke-width="2.5" />
        </g>
    </svg>