<svg xmlns="http://www.w3.org/2000/svg" width="800" height="800" viewBox="0 0 800 800">
    <g style="color: #2563EB;">
        <path d="M 421.54 400.00 L 422.99 401.45 L 422.67 402.86 L 420.93 403.99 L 418.57 404.77 L 416.38 405.32 L 414.77 405.85 L 413.60 406.40 L 412.43 406.83 L 410.85 406.89 L 408.82 406.41 L 406.75 405.58 L 405.24 404.92 L 404.76 405.07 L 405.36 406.48 L 406.61 409.10 L 407.83 412.33 L 408.41 415.29 L 408.11 417.24 L 407.09 417.91 L 405.73 417.64 L 404.39 417.10 L 403.22 416.89 L 402.17 417.19 L 401.11 417.66 L 400.00 417.71 L 398.94 416.85 L 398.09 415.13 L 397.50 413.08 L 397.04 411.55 L 396.37 411.16 L 395.24 412.01 L 393.61 413.58 L 391.76 414.99 L 390.19 415.46 L 389.34 414.67 L 389.33 412.90 L 389.87 410.79 L 390.43 408.99 L 390.53 407.83 L 390.07 407.22 L 389.33 406.77 L 388.81 406.15 L 388.87 405.24 L 389.39 404.20 L 389.84 403.30 L 389.46 402.71 L 387.75 402.34 L 384.81 401.92 L 381.36 401.17 L 378.46 400.00 L 377.01 398.55 L 377.33 397.14 L 379.07 396.01 L 381.43 395.23 L 383.62 394.68 L 385.23 394.15 L 386.40 393.60 L 387.57 393.17 L 389.15 393.11 L 391.18 393.59 L 393.25 394.42 L 394.76 395.08 L 395.24 394.93 L 394.64 393.52 L 393.39 390.90 L 392.17 387.67 L 391.59 384.71 L 391.89 382.76 L 392.91 382.09 L 394.27 382.36 L 395.61 382.90 L 396.78 383.11 L 397.83 382.81 L 398.89 382.34 L 400.00 382.29 L 401.06 383.15 L 401.91 384.87 L 402.50 386.92 L 402.96 388.45 L 403.63 388.84 L 404.76 387.99 L 406.39 386.42 L 408.24 385.01 L 409.81 384.54 L 410.66 385.33 L 410.67 387.10 L 410.13 389.21 L 409.57 391.01 L 409.47 392.17 L 409.93 392.78 L 410.67 393.23 L 411.19 393.85 L 411.13 394.76 L 410.61 395.80 L 410.16 396.70 L 410.54 397.29 L 412.25 397.66 L 415.19 398.08 L 418.64 398.83 L 421.54 400.00 Z" fill="none" stroke="currentColor" stroke-width="1.5" stroke-opacity="0.25"/>
        <path d="M 437.95 400.00 L 437.57 402.36 L 435.92 404.54 L 433.79 406.45 L 431.89 408.19 L 430.43 409.89 L 429.14 411.54 L 427.51 412.94 L 425.22 413.87 L 422.40 414.22 L 419.60 414.24 L 417.49 414.47 L 416.51 415.51 L 416.59 417.67 L 417.18 420.77 L 417.57 424.18 L 417.18 427.07 L 415.86 428.86 L 413.88 429.49 L 411.65 429.44 L 409.54 429.37 L 407.64 429.77 L 405.85 430.67 L 403.99 431.58 L 402.01 431.88 L 400.00 431.22 L 398.13 429.74 L 396.45 428.11 L 394.82 427.14 L 392.99 427.30 L 390.74 428.50 L 388.11 430.03 L 385.43 430.96 L 383.18 430.60 L 381.71 428.82 L 381.06 426.06 L 380.90 423.09 L 380.72 420.53 L 380.16 418.63 L 379.20 417.21 L 378.17 415.86 L 377.53 414.26 L 377.47 412.39 L 377.73 410.48 L 377.65 408.85 L 376.52 407.63 L 373.99 406.68 L 370.36 405.65 L 366.49 404.23 L 363.46 402.30 L 362.05 400.00 L 362.43 397.64 L 364.08 395.46 L 366.21 393.55 L 368.11 391.81 L 369.57 390.11 L 370.86 388.46 L 372.49 387.06 L 374.78 386.13 L 377.60 385.78 L 380.40 385.76 L 382.51 385.53 L 383.49 384.49 L 383.41 382.33 L 382.82 379.23 L 382.43 375.82 L 382.82 372.93 L 384.14 371.14 L 386.12 370.51 L 388.35 370.56 L 390.46 370.63 L 392.36 370.23 L 394.15 369.33 L 396.01 368.42 L 397.99 368.12 L 400.00 368.78 L 401.87 370.26 L 403.55 371.89 L 405.18 372.86 L 407.01 372.70 L 409.26 371.50 L 411.89 369.97 L 414.57 369.04 L 416.82 369.40 L 418.29 371.18 L 418.94 373.94 L 419.10 376.91 L 419.28 379.47 L 419.84 381.37 L 420.80 382.79 L 421.83 384.14 L 422.47 385.74 L 422.53 387.61 L 422.27 389.52 L 422.35 391.15 L 423.48 392.37 L 426.01 393.32 L 429.64 394.35 L 433.51 395.77 L 436.54 397.70 L 437.95 400.00 Z" fill="none" stroke="currentColor" stroke-width="1.5" stroke-opacity="0.25"/>
        <path d="M 451.75 400.00 L 450.38 403.17 L 448.74 406.16 L 447.36 409.03 L 446.26 411.88 L 445.03 414.63 L 443.15 417.09 L 440.41 419.02 L 437.09 420.39 L 433.85 421.48 L 431.39 422.81 L 430.08 424.88 L 429.70 427.89 L 429.62 431.54 L 429.10 435.17 L 427.65 438.05 L 425.24 439.78 L 422.25 440.47 L 419.15 440.70 L 416.28 441.12 L 413.68 442.10 L 411.17 443.49 L 408.53 444.74 L 405.72 445.27 L 402.82 444.84 L 400.00 443.77 L 397.31 442.77 L 394.62 442.59 L 391.70 443.52 L 388.39 445.23 L 384.77 446.86 L 381.20 447.48 L 378.12 446.49 L 375.83 443.96 L 374.30 440.49 L 373.20 436.88 L 372.09 433.74 L 370.71 431.19 L 369.14 428.98 L 367.76 426.67 L 366.90 424.05 L 366.63 421.18 L 366.53 418.40 L 365.87 416.06 L 364.01 414.25 L 360.76 412.75 L 356.58 411.15 L 352.42 409.08 L 349.34 406.40 L 347.96 403.27 L 348.25 400.00 L 349.62 396.83 L 351.26 393.84 L 352.64 390.97 L 353.74 388.12 L 354.97 385.37 L 356.85 382.91 L 359.59 380.98 L 362.91 379.61 L 366.15 378.52 L 368.61 377.19 L 369.92 375.12 L 370.30 372.11 L 370.38 368.46 L 370.90 364.83 L 372.35 361.95 L 374.76 360.22 L 377.75 359.53 L 380.85 359.30 L 383.72 358.88 L 386.32 357.90 L 388.83 356.51 L 391.47 355.26 L 394.28 354.73 L 397.18 355.16 L 400.00 356.23 L 402.69 357.23 L 405.38 357.41 L 408.30 356.48 L 411.61 354.77 L 415.23 353.14 L 418.80 352.52 L 421.88 353.51 L 424.17 356.04 L 425.70 359.51 L 426.80 363.12 L 427.91 366.26 L 429.29 368.81 L 430.86 371.02 L 432.24 373.33 L 433.10 375.95 L 433.37 378.82 L 433.47 381.60 L 434.13 383.94 L 435.99 385.75 L 439.24 387.25 L 443.42 388.85 L 447.58 390.92 L 450.66 393.60 L 452.04 396.73 L 451.75 400.00 Z" fill="none" stroke="currentColor" stroke-width="1.5" stroke-opacity="0.25"/>
        <path d="M 464.21 400.00 L 463.21 403.98 L 462.48 407.89 L 461.88 411.80 L 460.87 415.63 L 458.95 419.15 L 456.02 422.18 L 452.50 424.71 L 449.16 427.03 L 446.66 429.61 L 445.22 432.86 L 444.51 436.82 L 443.79 441.12 L 442.35 445.10 L 439.80 448.12 L 436.29 449.95 L 432.28 450.87 L 428.31 451.50 L 424.68 452.45 L 421.36 453.94 L 418.11 455.73 L 414.69 457.22 L 411.05 457.92 L 407.30 457.75 L 403.60 457.17 L 400.00 456.94 L 396.37 457.68 L 392.49 459.48 L 388.21 461.80 L 383.66 463.64 L 379.17 464.09 L 375.17 462.71 L 371.90 459.72 L 369.30 455.85 L 367.06 451.91 L 364.83 448.40 L 362.49 445.35 L 360.18 442.40 L 358.28 439.18 L 357.05 435.53 L 356.40 431.68 L 355.78 428.06 L 354.46 425.04 L 351.87 422.65 L 347.98 420.60 L 343.40 418.39 L 339.12 415.63 L 336.08 412.19 L 334.72 408.25 L 334.85 404.10 L 335.79 400.00 L 336.79 396.02 L 337.52 392.11 L 338.12 388.20 L 339.13 384.37 L 341.05 380.85 L 343.98 377.82 L 347.50 375.29 L 350.84 372.97 L 353.34 370.39 L 354.78 367.14 L 355.49 363.18 L 356.21 358.88 L 357.65 354.90 L 360.20 351.88 L 363.71 350.05 L 367.72 349.13 L 371.69 348.50 L 375.32 347.55 L 378.64 346.06 L 381.89 344.27 L 385.31 342.78 L 388.95 342.08 L 392.70 342.25 L 396.40 342.83 L 400.00 343.06 L 403.63 342.32 L 407.51 340.52 L 411.79 338.20 L 416.34 336.36 L 420.83 335.91 L 424.83 337.29 L 428.10 340.28 L 430.70 344.15 L 432.94 348.09 L 435.17 351.60 L 437.51 354.65 L 439.82 357.60 L 441.72 360.82 L 442.95 364.47 L 443.60 368.32 L 444.22 371.94 L 445.54 374.96 L 448.13 377.35 L 452.02 379.40 L 456.60 381.61 L 460.88 384.37 L 463.92 387.81 L 465.28 391.75 L 465.15 395.90 L 464.21 400.00 Z" fill="none" stroke="currentColor" stroke-width="1.5" stroke-opacity="0.25"/>
        <path d="M 477.10 400.00 L 477.08 404.85 L 477.02 409.73 L 476.31 414.56 L 474.51 419.13 L 471.65 423.28 L 468.27 427.03 L 465.17 430.67 L 462.94 434.60 L 461.62 439.11 L 460.73 444.12 L 459.46 449.19 L 457.15 453.67 L 453.56 457.04 L 448.99 459.22 L 444.02 460.59 L 439.21 461.79 L 434.82 463.34 L 430.75 465.35 L 426.71 467.46 L 422.46 469.12 L 417.96 469.95 L 413.36 470.06 L 408.85 470.02 L 404.44 470.61 L 400.00 472.31 L 395.28 474.99 L 390.16 477.91 L 384.74 480.01 L 379.35 480.41 L 374.38 478.85 L 370.03 475.70 L 366.23 471.76 L 362.73 467.80 L 359.26 464.19 L 355.81 460.82 L 352.62 457.27 L 350.03 453.22 L 348.20 448.64 L 346.93 443.90 L 345.59 439.53 L 343.47 435.87 L 340.12 432.92 L 335.65 430.28 L 330.79 427.40 L 326.49 423.88 L 323.56 419.63 L 322.24 414.83 L 322.16 409.83 L 322.59 404.87 L 322.90 400.00 L 322.92 395.15 L 322.98 390.27 L 323.69 385.44 L 325.49 380.87 L 328.35 376.72 L 331.73 372.97 L 334.83 369.33 L 337.06 365.40 L 338.38 360.89 L 339.27 355.88 L 340.54 350.81 L 342.85 346.33 L 346.44 342.96 L 351.01 340.78 L 355.98 339.41 L 360.79 338.21 L 365.18 336.66 L 369.25 334.65 L 373.29 332.54 L 377.54 330.88 L 382.04 330.05 L 386.64 329.94 L 391.15 329.98 L 395.56 329.39 L 400.00 327.69 L 404.72 325.01 L 409.84 322.09 L 415.26 319.99 L 420.65 319.59 L 425.62 321.15 L 429.97 324.30 L 433.77 328.24 L 437.27 332.20 L 440.74 335.81 L 444.19 339.18 L 447.38 342.73 L 449.97 346.78 L 451.80 351.36 L 453.07 356.10 L 454.41 360.47 L 456.53 364.13 L 459.88 367.08 L 464.35 369.72 L 469.21 372.60 L 473.51 376.12 L 476.44 380.37 L 477.76 385.17 L 477.84 390.17 L 477.41 395.13 L 477.10 400.00 Z" fill="none" stroke="currentColor" stroke-width="1.5" stroke-opacity="0.25"/>
        <path d="M 491.09 400.00 L 491.54 405.76 L 491.16 411.52 L 489.58 417.09 L 487.00 422.34 L 484.05 427.31 L 481.51 432.27 L 479.82 437.56 L 478.86 443.35 L 477.96 449.48 L 476.28 455.42 L 473.23 460.58 L 468.73 464.54 L 463.24 467.34 L 457.44 469.43 L 451.88 471.41 L 446.76 473.68 L 441.92 476.24 L 437.03 478.68 L 431.87 480.50 L 426.47 481.47 L 421.03 481.89 L 415.73 482.44 L 410.59 483.87 L 405.44 486.48 L 400.00 489.96 L 394.12 493.40 L 387.91 495.72 L 381.66 496.15 L 375.71 494.59 L 370.25 491.55 L 365.22 487.85 L 360.39 484.17 L 355.63 480.71 L 350.99 477.22 L 346.78 473.25 L 343.30 468.54 L 340.64 463.21 L 338.48 457.77 L 336.19 452.79 L 333.10 448.61 L 328.90 445.12 L 323.87 441.85 L 318.76 438.23 L 314.50 433.85 L 311.70 428.69 L 310.38 423.01 L 310.04 417.16 L 309.94 411.38 L 309.56 405.69 L 308.91 400.00 L 308.46 394.24 L 308.84 388.48 L 310.42 382.91 L 313.00 377.66 L 315.95 372.69 L 318.49 367.73 L 320.18 362.44 L 321.14 356.65 L 322.04 350.52 L 323.72 344.58 L 326.77 339.42 L 331.27 335.46 L 336.76 332.66 L 342.56 330.57 L 348.12 328.59 L 353.24 326.32 L 358.08 323.76 L 362.97 321.32 L 368.13 319.50 L 373.53 318.53 L 378.97 318.11 L 384.27 317.56 L 389.41 316.13 L 394.56 313.52 L 400.00 310.04 L 405.88 306.60 L 412.09 304.28 L 418.34 303.85 L 424.29 305.41 L 429.75 308.45 L 434.78 312.15 L 439.61 315.83 L 444.37 319.29 L 449.01 322.78 L 453.22 326.75 L 456.70 331.46 L 459.36 336.79 L 461.52 342.23 L 463.81 347.21 L 466.90 351.39 L 471.10 354.88 L 476.13 358.15 L 481.24 361.77 L 485.50 366.15 L 488.30 371.31 L 489.62 376.99 L 489.96 382.84 L 490.06 388.62 L 490.44 394.31 L 491.09 400.00 Z" fill="none" stroke="currentColor" stroke-width="1.5" stroke-opacity="0.25"/>
        <path d="M 505.42 400.00 L 505.33 406.63 L 504.04 413.14 L 501.90 419.44 L 499.60 425.57 L 497.86 431.80 L 496.94 438.38 L 496.51 445.42 L 495.76 452.65 L 493.82 459.54 L 490.21 465.54 L 485.01 470.33 L 478.83 474.03 L 472.40 477.10 L 466.24 480.08 L 460.48 483.24 L 454.87 486.45 L 449.09 489.29 L 442.98 491.34 L 436.64 492.55 L 430.34 493.37 L 424.28 494.57 L 418.47 496.81 L 412.67 500.26 L 406.57 504.40 L 400.00 508.23 L 393.04 510.68 L 385.96 511.16 L 379.07 509.73 L 372.52 507.01 L 366.27 503.81 L 360.15 500.65 L 354.09 497.55 L 348.24 494.14 L 342.91 489.95 L 338.38 484.81 L 334.66 478.98 L 331.37 473.08 L 327.88 467.72 L 323.64 463.17 L 318.49 459.22 L 312.82 455.32 L 307.45 450.88 L 303.17 445.56 L 300.42 439.43 L 299.03 432.81 L 298.36 426.10 L 297.70 419.51 L 296.68 413.05 L 295.45 406.58 L 294.58 400.00 L 294.67 393.37 L 295.96 386.86 L 298.10 380.56 L 300.40 374.43 L 302.14 368.20 L 303.06 361.62 L 303.49 354.58 L 304.24 347.35 L 306.18 340.46 L 309.79 334.46 L 314.99 329.67 L 321.17 325.97 L 327.60 322.90 L 333.76 319.92 L 339.52 316.76 L 345.13 313.55 L 350.91 310.71 L 357.02 308.66 L 363.36 307.45 L 369.66 306.63 L 375.72 305.43 L 381.53 303.19 L 387.33 299.74 L 393.43 295.60 L 400.00 291.77 L 406.96 289.32 L 414.04 288.84 L 420.93 290.27 L 427.48 292.99 L 433.73 296.19 L 439.85 299.35 L 445.91 302.45 L 451.76 305.86 L 457.09 310.05 L 461.62 315.19 L 465.34 321.02 L 468.63 326.92 L 472.12 332.28 L 476.36 336.83 L 481.51 340.78 L 487.18 344.68 L 492.55 349.12 L 496.83 354.44 L 499.58 360.57 L 500.97 367.19 L 501.64 373.90 L 502.30 380.49 L 503.32 386.95 L 504.55 393.42 L 505.42 400.00 Z" fill="none" stroke="currentColor" stroke-width="1.5" stroke-opacity="0.25"/>
        <path d="M 518.86 400.00 L 517.89 407.42 L 516.28 414.69 L 514.78 421.90 L 513.99 429.27 L 513.98 437.03 L 514.19 445.21 L 513.70 453.50 L 511.65 461.38 L 507.69 468.34 L 502.06 474.15 L 495.47 478.98 L 488.68 483.28 L 482.13 487.46 L 475.84 491.68 L 469.53 495.69 L 462.87 499.07 L 455.80 501.51 L 448.53 503.13 L 441.38 504.51 L 434.59 506.45 L 428.12 509.52 L 421.69 513.72 L 414.95 518.37 L 407.70 522.42 L 400.00 524.92 L 392.11 525.43 L 384.31 524.21 L 376.74 521.96 L 369.34 519.41 L 362.01 516.93 L 354.73 514.35 L 347.68 511.18 L 341.20 506.97 L 335.50 501.64 L 330.53 495.61 L 325.90 489.57 L 321.02 484.11 L 315.46 479.39 L 309.22 475.10 L 302.83 470.60 L 297.08 465.32 L 292.65 459.01 L 289.79 451.86 L 288.16 444.28 L 287.04 436.70 L 285.79 429.32 L 284.17 422.10 L 282.46 414.85 L 281.28 407.47 L 281.14 400.00 L 282.11 392.58 L 283.72 385.31 L 285.22 378.10 L 286.01 370.73 L 286.02 362.97 L 285.81 354.79 L 286.30 346.50 L 288.35 338.62 L 292.31 331.66 L 297.94 325.85 L 304.53 321.02 L 311.32 316.72 L 317.87 312.54 L 324.16 308.32 L 330.47 304.31 L 337.13 300.93 L 344.20 298.49 L 351.47 296.87 L 358.62 295.49 L 365.41 293.55 L 371.88 290.48 L 378.31 286.28 L 385.05 281.63 L 392.30 277.58 L 400.00 275.08 L 407.89 274.57 L 415.69 275.79 L 423.26 278.04 L 430.66 280.59 L 437.99 283.07 L 445.27 285.65 L 452.32 288.82 L 458.80 293.03 L 464.50 298.36 L 469.47 304.39 L 474.10 310.43 L 478.98 315.89 L 484.54 320.61 L 490.78 324.90 L 497.17 329.40 L 502.92 334.68 L 507.35 340.99 L 510.21 348.14 L 511.84 355.72 L 512.96 363.30 L 514.21 370.68 L 515.83 377.90 L 517.54 385.15 L 518.72 392.53 L 518.86 400.00 Z" fill="none" stroke="currentColor" stroke-width="1.5" stroke-opacity="0.25"/>
        <path d="M 531.23 400.00 L 530.22 408.19 L 529.59 416.37 L 529.81 424.76 L 530.73 433.57 L 531.61 442.76 L 531.43 452.03 L 529.39 460.89 L 525.28 468.87 L 519.50 475.83 L 512.82 481.97 L 505.96 487.66 L 499.26 493.21 L 492.63 498.64 L 485.72 503.61 L 478.27 507.72 L 470.30 510.78 L 462.15 513.05 L 454.21 515.21 L 446.74 518.04 L 439.64 521.99 L 432.57 526.87 L 425.16 531.91 L 417.19 536.06 L 408.71 538.51 L 400.00 539.05 L 391.31 538.09 L 382.77 536.39 L 374.33 534.57 L 365.89 532.83 L 357.49 530.83 L 349.32 528.00 L 341.69 523.92 L 334.76 518.66 L 328.45 512.75 L 322.34 506.90 L 315.92 501.63 L 308.92 496.99 L 301.50 492.50 L 294.26 487.48 L 287.96 481.40 L 283.18 474.14 L 279.97 465.99 L 277.85 457.48 L 276.12 449.05 L 274.19 440.88 L 271.98 432.87 L 269.87 424.82 L 268.45 416.62 L 268.12 408.30 L 268.77 400.00 L 269.78 391.81 L 270.41 383.63 L 270.19 375.24 L 269.27 366.43 L 268.39 357.24 L 268.57 347.97 L 270.61 339.11 L 274.72 331.13 L 280.50 324.17 L 287.18 318.03 L 294.04 312.34 L 300.74 306.79 L 307.37 301.36 L 314.28 296.39 L 321.73 292.28 L 329.70 289.22 L 337.85 286.95 L 345.79 284.79 L 353.26 281.96 L 360.36 278.01 L 367.43 273.13 L 374.84 268.09 L 382.81 263.94 L 391.29 261.49 L 400.00 260.95 L 408.69 261.91 L 417.23 263.61 L 425.67 265.43 L 434.11 267.17 L 442.51 269.17 L 450.68 272.00 L 458.31 276.08 L 465.24 281.34 L 471.55 287.25 L 477.66 293.10 L 484.08 298.37 L 491.08 303.01 L 498.50 307.50 L 505.74 312.52 L 512.04 318.60 L 516.82 325.86 L 520.03 334.01 L 522.15 342.52 L 523.88 350.95 L 525.81 359.12 L 528.02 367.13 L 530.13 375.18 L 531.55 383.38 L 531.88 391.70 L 531.23 400.00 Z" fill="none" stroke="currentColor" stroke-width="1.5" stroke-opacity="0.25"/>
        <path d="M 543.83 400.00 L 544.09 409.07 L 545.30 418.36 L 547.10 428.06 L 548.58 438.15 L 548.69 448.31 L 546.73 458.10 L 542.65 467.13 L 536.98 475.30 L 530.51 482.82 L 523.87 490.00 L 517.28 497.02 L 510.50 503.76 L 503.16 509.85 L 495.06 514.90 L 486.34 518.84 L 477.45 522.05 L 468.86 525.25 L 460.78 529.15 L 453.08 534.06 L 445.37 539.62 L 437.23 544.99 L 428.46 549.18 L 419.15 551.57 L 409.57 552.15 L 400.00 551.50 L 390.54 550.38 L 381.14 549.31 L 371.71 548.29 L 362.30 546.85 L 353.09 544.38 L 344.35 540.56 L 336.20 535.58 L 328.50 530.06 L 320.86 524.71 L 312.86 519.93 L 304.38 515.59 L 295.70 511.07 L 287.48 505.67 L 280.45 498.90 L 275.06 490.78 L 271.20 481.74 L 268.33 472.39 L 265.75 463.17 L 263.02 454.23 L 260.18 445.43 L 257.67 436.54 L 256.05 427.46 L 255.52 418.25 L 255.80 409.07 L 256.17 400.00 L 255.91 390.93 L 254.70 381.64 L 252.90 371.94 L 251.42 361.85 L 251.31 351.69 L 253.27 341.90 L 257.35 332.87 L 263.02 324.70 L 269.49 317.18 L 276.13 310.00 L 282.72 302.98 L 289.50 296.24 L 296.84 290.15 L 304.94 285.10 L 313.66 281.16 L 322.55 277.95 L 331.14 274.75 L 339.22 270.85 L 346.92 265.94 L 354.63 260.38 L 362.77 255.01 L 371.54 250.82 L 380.85 248.43 L 390.43 247.85 L 400.00 248.50 L 409.46 249.62 L 418.86 250.69 L 428.29 251.71 L 437.70 253.15 L 446.91 255.62 L 455.65 259.44 L 463.80 264.42 L 471.50 269.94 L 479.14 275.29 L 487.14 280.07 L 495.62 284.41 L 504.30 288.93 L 512.52 294.33 L 519.55 301.10 L 524.94 309.22 L 528.80 318.26 L 531.67 327.61 L 534.25 336.83 L 536.98 345.77 L 539.82 354.57 L 542.33 363.46 L 543.95 372.54 L 544.48 381.75 L 544.20 390.93 L 543.83 400.00 Z" fill="none" stroke="currentColor" stroke-width="1.5" stroke-opacity="0.25"/>
        <path d="M 558.41 400.00 L 560.54 410.10 L 563.09 420.60 L 565.04 431.48 L 565.38 442.46 L 563.53 453.13 L 559.60 463.19 L 554.25 472.58 L 548.24 481.49 L 542.08 490.17 L 535.80 498.67 L 529.07 506.78 L 521.49 514.09 L 512.94 520.27 L 503.70 525.35 L 494.30 529.79 L 485.23 534.30 L 476.68 539.49 L 468.46 545.48 L 460.09 551.77 L 451.17 557.49 L 441.53 561.75 L 431.31 564.13 L 420.82 564.84 L 410.35 564.56 L 400.00 564.06 L 389.70 563.70 L 379.37 563.32 L 369.03 562.36 L 358.86 560.24 L 349.07 556.74 L 339.74 552.20 L 330.69 547.30 L 321.55 542.71 L 312.01 538.65 L 302.06 534.80 L 292.10 530.43 L 282.82 524.78 L 274.90 517.48 L 268.63 508.68 L 263.82 498.94 L 259.89 488.91 L 256.23 479.04 L 252.52 469.40 L 248.94 459.81 L 245.98 450.04 L 244.07 440.03 L 243.27 429.90 L 243.09 419.82 L 242.76 409.89 L 241.59 400.00 L 239.46 389.90 L 236.91 379.40 L 234.96 368.52 L 234.62 357.54 L 236.47 346.87 L 240.40 336.81 L 245.75 327.42 L 251.76 318.51 L 257.92 309.83 L 264.20 301.33 L 270.93 293.22 L 278.51 285.91 L 287.06 279.73 L 296.30 274.65 L 305.70 270.21 L 314.77 265.70 L 323.32 260.51 L 331.54 254.52 L 339.91 248.23 L 348.83 242.51 L 358.47 238.25 L 368.69 235.87 L 379.18 235.16 L 389.65 235.44 L 400.00 235.94 L 410.30 236.30 L 420.63 236.68 L 430.97 237.64 L 441.14 239.76 L 450.93 243.26 L 460.26 247.80 L 469.31 252.70 L 478.45 257.29 L 487.99 261.35 L 497.94 265.20 L 507.90 269.57 L 517.18 275.22 L 525.10 282.52 L 531.37 291.32 L 536.18 301.06 L 540.11 311.09 L 543.77 320.96 L 547.48 330.60 L 551.06 340.19 L 554.02 349.96 L 555.93 359.97 L 556.73 370.10 L 556.91 380.18 L 557.24 390.11 L 558.41 400.00 Z" fill="none" stroke="currentColor" stroke-width="1.5" stroke-opacity="0.25"/>
        <path d="M 575.60 400.00 L 578.76 411.25 L 581.03 422.87 L 581.49 434.62 L 579.73 446.15 L 576.06 457.20 L 571.17 467.77 L 565.80 478.02 L 560.28 488.12 L 554.49 498.04 L 547.97 507.51 L 540.34 516.10 L 531.58 523.56 L 522.08 530.00 L 512.44 535.92 L 503.16 541.98 L 494.34 548.65 L 485.69 555.86 L 476.70 563.00 L 466.98 569.17 L 456.41 573.62 L 445.23 576.15 L 433.79 577.14 L 422.41 577.37 L 411.17 577.52 L 400.00 577.83 L 388.80 578.01 L 377.59 577.43 L 366.50 575.59 L 355.72 572.45 L 345.27 568.45 L 334.93 564.34 L 324.39 560.67 L 313.42 557.50 L 302.10 554.27 L 290.90 550.16 L 280.53 544.42 L 271.56 536.78 L 264.19 527.53 L 258.16 517.34 L 252.90 506.87 L 247.91 496.52 L 243.04 486.29 L 238.58 475.96 L 235.01 465.32 L 232.67 454.37 L 231.41 443.29 L 230.62 432.31 L 229.47 421.54 L 227.38 410.86 L 224.40 400.00 L 221.24 388.75 L 218.97 377.13 L 218.51 365.38 L 220.27 353.85 L 223.94 342.80 L 228.83 332.23 L 234.20 321.98 L 239.72 311.88 L 245.51 301.96 L 252.03 292.49 L 259.66 283.90 L 268.42 276.44 L 277.92 270.00 L 287.56 264.08 L 296.84 258.02 L 305.66 251.35 L 314.31 244.14 L 323.30 237.00 L 333.02 230.83 L 343.59 226.38 L 354.77 223.85 L 366.21 222.86 L 377.59 222.63 L 388.83 222.48 L 400.00 222.17 L 411.20 221.99 L 422.41 222.57 L 433.50 224.41 L 444.28 227.55 L 454.73 231.55 L 465.07 235.66 L 475.61 239.33 L 486.58 242.50 L 497.90 245.73 L 509.10 249.84 L 519.47 255.58 L 528.44 263.22 L 535.81 272.47 L 541.84 282.66 L 547.10 293.13 L 552.09 303.48 L 556.96 313.71 L 561.42 324.04 L 564.99 334.68 L 567.33 345.63 L 568.59 356.71 L 569.38 367.69 L 570.53 378.46 L 572.62 389.14 L 575.60 400.00 Z" fill="none" stroke="currentColor" stroke-width="1.5" stroke-opacity="0.25"/>
        <path d="M 594.13 400.00 L 596.60 412.37 L 597.09 424.90 L 595.42 437.28 L 592.05 449.31 L 587.72 460.99 L 583.08 472.48 L 578.29 483.90 L 573.06 495.14 L 566.87 505.90 L 559.36 515.78 L 550.62 524.61 L 541.15 532.55 L 531.59 540.13 L 522.38 547.93 L 513.50 556.22 L 504.58 564.79 L 495.05 572.90 L 484.55 579.68 L 473.06 584.54 L 460.91 587.46 L 448.52 588.97 L 436.22 589.88 L 424.10 590.77 L 412.06 591.75 L 400.00 592.41 L 387.91 592.13 L 375.93 590.54 L 364.18 587.76 L 352.66 584.39 L 341.14 581.16 L 329.33 578.50 L 317.06 576.25 L 304.51 573.70 L 292.17 569.92 L 280.70 564.20 L 270.60 556.42 L 261.98 546.98 L 254.51 536.62 L 247.70 525.99 L 241.19 515.38 L 234.98 504.73 L 229.46 493.76 L 225.09 482.31 L 222.08 470.45 L 220.12 458.45 L 218.48 446.61 L 216.35 435.03 L 213.29 423.59 L 209.52 411.98 L 205.87 400.00 L 203.40 387.63 L 202.91 375.10 L 204.58 362.72 L 207.95 350.69 L 212.28 339.01 L 216.92 327.52 L 221.71 316.10 L 226.94 304.86 L 233.13 294.10 L 240.64 284.22 L 249.38 275.39 L 258.85 267.45 L 268.41 259.87 L 277.62 252.07 L 286.50 243.78 L 295.42 235.21 L 304.95 227.10 L 315.45 220.32 L 326.94 215.46 L 339.09 212.54 L 351.48 211.03 L 363.78 210.12 L 375.90 209.23 L 387.94 208.25 L 400.00 207.59 L 412.09 207.87 L 424.07 209.46 L 435.82 212.24 L 447.34 215.61 L 458.86 218.84 L 470.67 221.50 L 482.94 223.75 L 495.49 226.30 L 507.83 230.08 L 519.30 235.80 L 529.40 243.58 L 538.02 253.02 L 545.49 263.38 L 552.30 274.01 L 558.81 284.62 L 565.02 295.27 L 570.54 306.24 L 574.91 317.69 L 577.92 329.55 L 579.88 341.55 L 581.52 353.39 L 583.65 364.97 L 586.71 376.41 L 590.48 388.02 L 594.13 400.00 Z" fill="none" stroke="currentColor" stroke-width="1.5" stroke-opacity="0.25"/>
        <path d="M 611.78 400.00 L 612.28 413.36 L 610.71 426.62 L 607.68 439.62 L 603.96 452.37 L 600.08 465.01 L 596.03 477.61 L 591.37 490.05 L 585.54 502.00 L 578.28 513.14 L 569.77 523.35 L 560.61 532.87 L 551.43 542.20 L 542.57 551.82 L 533.88 561.83 L 524.85 571.84 L 514.90 581.05 L 503.71 588.64 L 491.37 594.17 L 478.31 597.78 L 465.02 600.11 L 451.85 601.93 L 438.86 603.71 L 425.95 605.41 L 412.99 606.53 L 400.00 606.53 L 387.09 605.18 L 374.38 602.81 L 361.83 600.12 L 349.21 597.81 L 336.26 596.17 L 322.86 594.82 L 309.22 592.91 L 295.85 589.45 L 283.33 583.84 L 272.07 576.08 L 262.09 566.71 L 253.07 556.47 L 244.58 545.95 L 236.42 535.33 L 228.74 524.43 L 221.98 512.97 L 216.59 500.83 L 212.63 488.17 L 209.66 475.36 L 206.89 462.75 L 203.58 450.43 L 199.45 438.26 L 194.89 425.91 L 190.81 413.16 L 188.22 400.00 L 187.72 386.64 L 189.29 373.38 L 192.32 360.38 L 196.04 347.63 L 199.92 334.99 L 203.97 322.39 L 208.63 309.95 L 214.46 298.00 L 221.72 286.86 L 230.23 276.65 L 239.39 267.13 L 248.57 257.80 L 257.43 248.18 L 266.12 238.17 L 275.15 228.16 L 285.10 218.95 L 296.29 211.36 L 308.63 205.83 L 321.69 202.22 L 334.98 199.89 L 348.15 198.07 L 361.14 196.29 L 374.05 194.59 L 387.01 193.47 L 400.00 193.47 L 412.91 194.82 L 425.62 197.19 L 438.17 199.88 L 450.79 202.19 L 463.74 203.83 L 477.14 205.18 L 490.78 207.09 L 504.15 210.55 L 516.67 216.16 L 527.93 223.92 L 537.91 233.29 L 546.93 243.53 L 555.42 254.05 L 563.58 264.67 L 571.26 275.57 L 578.02 287.03 L 583.41 299.17 L 587.37 311.83 L 590.34 324.64 L 593.11 337.25 L 596.42 349.57 L 600.55 361.74 L 605.11 374.09 L 609.19 386.84 L 611.78 400.00 Z" fill="none" stroke="currentColor" stroke-width="1.5" stroke-opacity="0.25"/>
        <path d="M 627.08 400.00 L 625.69 414.20 L 623.08 428.18 L 620.01 441.97 L 616.87 455.68 L 613.50 469.37 L 609.35 482.89 L 603.89 495.94 L 596.94 508.27 L 588.83 519.84 L 580.22 530.93 L 571.68 542.02 L 563.41 553.45 L 555.11 565.17 L 546.14 576.65 L 535.91 587.06 L 524.17 595.65 L 511.12 602.13 L 497.30 606.76 L 483.24 610.24 L 469.29 613.24 L 455.48 616.09 L 441.70 618.60 L 427.82 620.25 L 413.88 620.59 L 400.00 619.58 L 386.30 617.71 L 372.74 615.77 L 359.10 614.41 L 345.12 613.73 L 330.73 613.20 L 316.14 611.81 L 301.83 608.63 L 288.31 603.16 L 275.90 595.55 L 264.54 586.45 L 253.92 576.58 L 243.72 566.42 L 233.87 556.01 L 224.64 545.07 L 216.53 533.30 L 209.90 520.64 L 204.70 507.37 L 200.40 493.93 L 196.20 480.69 L 191.47 467.75 L 186.13 454.91 L 180.72 441.83 L 176.20 428.27 L 173.46 414.25 L 172.92 400.00 L 174.31 385.80 L 176.92 371.82 L 179.99 358.03 L 183.13 344.32 L 186.50 330.63 L 190.65 317.11 L 196.11 304.06 L 203.06 291.73 L 211.17 280.16 L 219.78 269.07 L 228.32 257.98 L 236.59 246.55 L 244.89 234.83 L 253.86 223.35 L 264.09 212.94 L 275.83 204.35 L 288.88 197.87 L 302.70 193.24 L 316.76 189.76 L 330.71 186.76 L 344.52 183.91 L 358.30 181.40 L 372.18 179.75 L 386.12 179.41 L 400.00 180.42 L 413.70 182.29 L 427.26 184.23 L 440.90 185.59 L 454.88 186.27 L 469.27 186.80 L 483.86 188.19 L 498.17 191.37 L 511.69 196.84 L 524.10 204.45 L 535.46 213.55 L 546.08 223.42 L 556.28 233.58 L 566.13 243.99 L 575.36 254.93 L 583.47 266.70 L 590.10 279.36 L 595.30 292.63 L 599.60 306.07 L 603.80 319.31 L 608.53 332.25 L 613.87 345.09 L 619.28 358.17 L 623.80 371.73 L 626.54 385.75 L 627.08 400.00 Z" fill="none" stroke="currentColor" stroke-width="1.5" stroke-opacity="0.25"/>
        <path d="M 640.39 400.00 L 638.32 414.99 L 635.95 429.81 L 633.54 444.55 L 630.76 459.25 L 627.04 473.77 L 621.90 487.85 L 615.30 501.31 L 607.72 514.19 L 599.82 526.81 L 592.11 539.58 L 584.62 552.73 L 576.85 566.08 L 568.09 579.00 L 557.72 590.66 L 545.60 600.40 L 532.05 608.08 L 517.67 614.04 L 503.04 618.96 L 488.46 623.41 L 473.93 627.54 L 459.32 631.03 L 444.52 633.36 L 429.59 634.19 L 414.70 633.68 L 400.00 632.47 L 385.44 631.40 L 370.82 631.02 L 355.88 631.26 L 340.59 631.41 L 325.13 630.42 L 309.96 627.42 L 295.49 622.09 L 281.95 614.73 L 269.24 606.05 L 257.06 596.74 L 245.19 587.13 L 233.69 577.10 L 222.92 566.29 L 213.37 554.39 L 205.33 541.44 L 198.64 527.79 L 192.71 513.96 L 186.80 500.32 L 180.44 486.93 L 173.73 473.52 L 167.36 459.73 L 162.30 445.34 L 159.29 430.41 L 158.55 415.19 L 159.61 400.00 L 161.68 385.01 L 164.05 370.19 L 166.46 355.45 L 169.24 340.75 L 172.96 326.23 L 178.10 312.15 L 184.70 298.69 L 192.28 285.81 L 200.18 273.19 L 207.89 260.42 L 215.38 247.27 L 223.15 233.92 L 231.91 221.00 L 242.28 209.34 L 254.40 199.60 L 267.95 191.92 L 282.33 185.96 L 296.96 181.04 L 311.54 176.59 L 326.07 172.46 L 340.68 168.97 L 355.48 166.64 L 370.41 165.81 L 385.30 166.32 L 400.00 167.53 L 414.56 168.60 L 429.18 168.98 L 444.12 168.74 L 459.41 168.59 L 474.87 169.58 L 490.04 172.58 L 504.51 177.91 L 518.05 185.27 L 530.76 193.95 L 542.94 203.26 L 554.81 212.87 L 566.31 222.90 L 577.08 233.71 L 586.63 245.61 L 594.67 258.56 L 601.36 272.21 L 607.29 286.04 L 613.20 299.68 L 619.56 313.07 L 626.27 326.48 L 632.64 340.27 L 637.70 354.66 L 640.71 369.59 L 641.45 384.81 L 640.39 400.00 Z" fill="none" stroke="currentColor" stroke-width="1.5" stroke-opacity="0.25"/>
        <path d="M 653.37 400.00 L 651.81 415.84 L 650.11 431.60 L 647.87 447.28 L 644.50 462.78 L 639.64 477.87 L 633.43 492.42 L 626.45 506.56 L 619.38 520.60 L 612.61 534.93 L 605.98 549.66 L 598.84 564.49 L 590.36 578.76 L 579.99 591.67 L 567.67 602.68 L 553.84 611.74 L 539.16 619.28 L 524.19 625.91 L 509.19 632.03 L 494.09 637.64 L 478.73 642.29 L 463.03 645.50 L 447.13 647.07 L 431.24 647.31 L 415.54 647.01 L 400.00 646.98 L 384.42 647.65 L 368.57 648.76 L 352.41 649.48 L 336.13 648.77 L 320.11 645.88 L 304.71 640.67 L 290.07 633.61 L 276.05 625.46 L 262.40 616.83 L 248.97 607.87 L 235.92 598.34 L 223.66 587.78 L 212.66 575.93 L 203.09 562.89 L 194.73 549.14 L 186.95 535.20 L 179.12 521.43 L 170.93 507.79 L 162.70 493.95 L 155.23 479.53 L 149.45 464.33 L 145.98 448.46 L 144.80 432.24 L 145.29 416.02 L 146.63 400.00 L 148.19 384.16 L 149.89 368.40 L 152.13 352.72 L 155.50 337.22 L 160.36 322.13 L 166.57 307.58 L 173.55 293.44 L 180.62 279.40 L 187.39 265.07 L 194.02 250.34 L 201.16 235.51 L 209.64 221.24 L 220.01 208.33 L 232.33 197.32 L 246.16 188.26 L 260.84 180.72 L 275.81 174.09 L 290.81 167.97 L 305.91 162.36 L 321.27 157.71 L 336.97 154.50 L 352.87 152.93 L 368.76 152.69 L 384.46 152.99 L 400.00 153.02 L 415.58 152.35 L 431.43 151.24 L 447.59 150.52 L 463.87 151.23 L 479.89 154.12 L 495.29 159.33 L 509.93 166.39 L 523.95 174.54 L 537.60 183.17 L 551.03 192.13 L 564.08 201.66 L 576.34 212.22 L 587.34 224.07 L 596.91 237.11 L 605.27 250.86 L 613.05 264.80 L 620.88 278.57 L 629.07 292.21 L 637.30 306.05 L 644.77 320.47 L 650.55 335.67 L 654.02 351.54 L 655.20 367.76 L 654.71 383.98 L 653.37 400.00 Z" fill="none" stroke="currentColor" stroke-width="1.5" stroke-opacity="0.25"/>
        <path d="M 667.46 400.00 L 666.54 416.77 L 664.83 433.46 L 661.79 449.94 L 657.22 466.04 L 651.43 481.69 L 645.12 497.05 L 638.95 512.44 L 633.16 528.18 L 627.40 544.31 L 620.86 560.46 L 612.69 575.96 L 602.40 590.07 L 590.05 602.39 L 576.18 612.97 L 561.47 622.25 L 546.44 630.75 L 531.23 638.71 L 515.73 645.94 L 499.75 651.95 L 483.27 656.28 L 466.47 658.87 L 449.64 660.20 L 432.98 661.10 L 416.50 662.33 L 400.00 664.16 L 383.25 666.16 L 366.22 667.39 L 349.09 666.89 L 332.20 664.06 L 315.85 658.99 L 300.11 652.29 L 284.83 644.74 L 269.80 636.82 L 254.95 628.56 L 240.49 619.55 L 226.84 609.31 L 214.41 597.63 L 203.28 584.73 L 193.14 571.13 L 183.38 557.39 L 173.48 543.75 L 163.36 530.09 L 153.50 515.99 L 144.78 501.05 L 138.10 485.10 L 133.89 468.33 L 131.95 451.13 L 131.57 433.91 L 131.93 416.87 L 132.54 400.00 L 133.46 383.23 L 135.17 366.54 L 138.21 350.06 L 142.78 333.96 L 148.57 318.31 L 154.88 302.95 L 161.05 287.56 L 166.84 271.82 L 172.60 255.69 L 179.14 239.54 L 187.31 224.04 L 197.60 209.93 L 209.95 197.61 L 223.82 187.03 L 238.53 177.75 L 253.56 169.25 L 268.77 161.29 L 284.27 154.06 L 300.25 148.05 L 316.73 143.72 L 333.53 141.13 L 350.36 139.80 L 367.02 138.90 L 383.50 137.67 L 400.00 135.84 L 416.75 133.84 L 433.78 132.61 L 450.91 133.11 L 467.80 135.94 L 484.15 141.01 L 499.89 147.71 L 515.17 155.26 L 530.20 163.18 L 545.05 171.44 L 559.51 180.45 L 573.16 190.69 L 585.59 202.37 L 596.72 215.27 L 606.86 228.87 L 616.62 242.61 L 626.52 256.25 L 636.64 269.91 L 646.50 284.01 L 655.22 298.95 L 661.90 314.90 L 666.11 331.67 L 668.05 348.87 L 668.43 366.09 L 668.07 383.13 L 667.46 400.00 Z" fill="none" stroke="currentColor" stroke-width="1.5" stroke-opacity="0.25"/>
        <path d="M 682.63 400.00 L 681.51 417.71 L 678.86 435.23 L 674.66 452.39 L 669.39 469.17 L 663.84 485.73 L 658.61 502.39 L 653.78 519.42 L 648.82 536.79 L 642.83 554.10 L 634.94 570.69 L 624.77 585.95 L 612.53 599.58 L 598.82 611.72 L 584.33 622.81 L 569.47 633.25 L 554.28 643.11 L 538.58 652.07 L 522.15 659.59 L 505.03 665.27 L 487.47 669.19 L 469.82 671.95 L 452.34 674.38 L 435.01 677.14 L 417.63 680.28 L 400.00 683.23 L 382.07 685.00 L 364.03 684.72 L 346.21 682.00 L 328.84 677.14 L 311.99 670.88 L 295.49 663.97 L 279.17 656.78 L 263.01 649.18 L 247.27 640.66 L 232.35 630.75 L 218.55 619.34 L 205.86 606.73 L 193.91 593.53 L 182.13 580.24 L 170.15 567.00 L 158.07 553.53 L 146.53 539.35 L 136.46 524.01 L 128.66 507.43 L 123.42 489.87 L 120.37 471.80 L 118.78 453.65 L 117.88 435.64 L 117.35 417.78 L 117.37 400.00 L 118.49 382.29 L 121.14 364.77 L 125.34 347.61 L 130.61 330.83 L 136.16 314.27 L 141.39 297.61 L 146.22 280.58 L 151.18 263.21 L 157.17 245.90 L 165.06 229.31 L 175.23 214.05 L 187.47 200.42 L 201.18 188.28 L 215.67 177.19 L 230.53 166.75 L 245.72 156.89 L 261.42 147.93 L 277.85 140.41 L 294.97 134.73 L 312.53 130.81 L 330.18 128.05 L 347.66 125.62 L 364.99 122.86 L 382.37 119.72 L 400.00 116.77 L 417.93 115.00 L 435.97 115.28 L 453.79 118.00 L 471.16 122.86 L 488.01 129.12 L 504.51 136.03 L 520.83 143.22 L 536.99 150.82 L 552.73 159.34 L 567.65 169.25 L 581.45 180.66 L 594.14 193.27 L 606.09 206.47 L 617.87 219.76 L 629.85 233.00 L 641.93 246.47 L 653.47 260.65 L 663.54 275.99 L 671.34 292.57 L 676.58 310.13 L 679.63 328.20 L 681.22 346.35 L 682.12 364.36 L 682.65 382.22 L 682.63 400.00 Z" fill="none" stroke="currentColor" stroke-width="1.5" stroke-opacity="0.25"/>
        <path d="M 697.69 400.00 L 695.58 418.60 L 691.91 436.88 L 687.34 454.81 L 682.67 472.58 L 678.43 490.47 L 674.53 508.70 L 670.29 527.19 L 664.72 545.53 L 657.04 563.13 L 647.01 579.47 L 634.97 594.38 L 621.58 608.08 L 607.50 620.97 L 593.02 633.32 L 578.05 645.07 L 562.32 655.77 L 545.63 664.89 L 528.05 672.12 L 509.93 677.66 L 491.68 682.17 L 473.55 686.45 L 455.51 690.97 L 437.34 695.61 L 418.85 699.63 L 400.00 702.04 L 380.99 702.09 L 362.15 699.62 L 343.70 695.12 L 325.69 689.42 L 307.98 683.22 L 290.42 676.76 L 273.06 669.76 L 256.14 661.67 L 240.03 652.08 L 224.92 640.97 L 210.72 628.80 L 196.99 616.18 L 183.25 603.55 L 169.25 590.89 L 155.28 577.80 L 142.08 563.68 L 130.59 548.11 L 121.50 531.05 L 114.95 512.86 L 110.48 494.07 L 107.33 475.15 L 104.88 456.30 L 102.97 437.52 L 101.94 418.75 L 102.31 400.00 L 104.42 381.40 L 108.09 363.12 L 112.66 345.19 L 117.33 327.42 L 121.57 309.53 L 125.47 291.30 L 129.71 272.81 L 135.28 254.47 L 142.96 236.87 L 152.99 220.53 L 165.03 205.62 L 178.42 191.92 L 192.50 179.03 L 206.98 166.68 L 221.95 154.93 L 237.68 144.23 L 254.37 135.11 L 271.95 127.88 L 290.07 122.34 L 308.32 117.83 L 326.45 113.55 L 344.49 109.03 L 362.66 104.39 L 381.15 100.37 L 400.00 97.96 L 419.01 97.91 L 437.85 100.38 L 456.30 104.88 L 474.31 110.58 L 492.02 116.78 L 509.58 123.24 L 526.94 130.24 L 543.86 138.33 L 559.97 147.92 L 575.08 159.03 L 589.28 171.20 L 603.01 183.82 L 616.75 196.45 L 630.75 209.11 L 644.72 222.20 L 657.92 236.32 L 669.41 251.89 L 678.50 268.95 L 685.05 287.14 L 689.52 305.93 L 692.67 324.85 L 695.12 343.70 L 697.03 362.48 L 698.06 381.25 L 697.69 400.00 Z" fill="none" stroke="currentColor" stroke-width="1.5" stroke-opacity="0.25"/>
        <path d="M 711.68 400.00 L 708.81 419.43 L 705.17 438.55 L 701.57 457.53 L 698.41 476.62 L 695.42 495.99 L 691.80 515.53 L 686.56 534.84 L 679.02 553.39 L 669.12 570.79 L 657.34 586.97 L 644.40 602.19 L 630.86 616.80 L 616.89 630.97 L 602.27 644.51 L 586.66 656.91 L 569.86 667.66 L 552.05 676.57 L 533.62 683.95 L 515.01 690.48 L 496.46 696.86 L 477.89 703.38 L 459.08 709.69 L 439.78 714.93 L 420.02 718.14 L 400.00 718.72 L 380.07 716.74 L 360.48 712.84 L 341.27 707.89 L 322.33 702.51 L 303.56 696.80 L 285.04 690.35 L 267.00 682.63 L 249.74 673.32 L 233.37 662.57 L 217.69 650.93 L 202.26 639.02 L 186.66 627.18 L 170.79 615.24 L 155.06 602.63 L 140.29 588.69 L 127.38 573.01 L 116.89 555.64 L 108.81 537.02 L 102.62 517.74 L 97.63 498.25 L 93.37 478.73 L 89.87 459.16 L 87.58 439.47 L 86.99 419.69 L 88.32 400.00 L 91.19 380.57 L 94.83 361.45 L 98.43 342.47 L 101.59 323.38 L 104.58 304.01 L 108.20 284.47 L 113.44 265.16 L 120.98 246.61 L 130.88 229.21 L 142.66 213.03 L 155.60 197.81 L 169.14 183.20 L 183.11 169.03 L 197.73 155.49 L 213.34 143.09 L 230.14 132.34 L 247.95 123.43 L 266.38 116.05 L 284.99 109.52 L 303.54 103.14 L 322.11 96.62 L 340.92 90.31 L 360.22 85.07 L 379.98 81.86 L 400.00 81.28 L 419.93 83.26 L 439.52 87.16 L 458.73 92.11 L 477.67 97.49 L 496.44 103.20 L 514.96 109.65 L 533.00 117.37 L 550.26 126.68 L 566.63 137.43 L 582.31 149.07 L 597.74 160.98 L 613.34 172.82 L 629.21 184.76 L 644.94 197.37 L 659.71 211.31 L 672.62 226.99 L 683.11 244.36 L 691.19 262.98 L 697.38 282.26 L 702.37 301.75 L 706.63 321.27 L 710.13 340.84 L 712.42 360.53 L 713.01 380.31 L 711.68 400.00 Z" fill="none" stroke="currentColor" stroke-width="1.5" stroke-opacity="0.25"/>
        <path d="M 725.06 400.00 L 722.66 420.30 L 720.37 440.47 L 718.42 460.74 L 716.37 481.23 L 713.32 501.80 L 708.34 522.08 L 700.91 541.60 L 691.16 560.07 L 679.71 577.51 L 667.29 594.20 L 654.37 610.43 L 640.97 626.29 L 626.76 641.48 L 611.35 655.48 L 594.60 667.84 L 576.75 678.51 L 558.25 687.86 L 539.56 696.59 L 520.85 705.24 L 501.99 713.90 L 482.68 722.01 L 462.69 728.63 L 442.05 732.84 L 421.03 734.24 L 400.00 733.06 L 379.23 730.07 L 358.80 726.13 L 338.63 721.73 L 318.65 716.82 L 298.97 710.94 L 279.81 703.57 L 261.39 694.55 L 243.76 684.20 L 226.64 673.17 L 209.60 662.07 L 192.28 651.09 L 174.71 639.91 L 157.40 627.81 L 141.20 614.10 L 126.90 598.42 L 114.94 580.90 L 105.19 562.08 L 97.09 542.54 L 90.04 522.72 L 83.78 502.74 L 78.51 482.54 L 74.75 462.04 L 72.97 441.31 L 73.20 420.56 L 74.94 400.00 L 77.34 379.70 L 79.63 359.53 L 81.58 339.26 L 83.63 318.77 L 86.68 298.20 L 91.66 277.92 L 99.09 258.40 L 108.84 239.93 L 120.29 222.49 L 132.71 205.80 L 145.63 189.57 L 159.03 173.71 L 173.24 158.52 L 188.65 144.52 L 205.40 132.16 L 223.25 121.49 L 241.75 112.14 L 260.44 103.41 L 279.15 94.76 L 298.01 86.10 L 317.32 77.99 L 337.31 71.37 L 357.95 67.16 L 378.97 65.76 L 400.00 66.94 L 420.77 69.93 L 441.20 73.87 L 461.37 78.27 L 481.35 83.18 L 501.03 89.06 L 520.19 96.43 L 538.61 105.45 L 556.24 115.80 L 573.36 126.83 L 590.40 137.93 L 607.72 148.91 L 625.29 160.09 L 642.60 172.19 L 658.80 185.90 L 673.10 201.58 L 685.06 219.10 L 694.81 237.92 L 702.91 257.46 L 709.96 277.28 L 716.22 297.26 L 721.49 317.46 L 725.25 337.96 L 727.03 358.69 L 726.80 379.44 L 725.06 400.00 Z" fill="none" stroke="currentColor" stroke-width="1.5" stroke-opacity="0.25"/>
        <path d="M 739.47 400.00 L 738.76 421.31 L 738.18 442.72 L 737.15 464.31 L 734.70 485.94 L 729.99 507.22 L 722.72 527.77 L 713.19 547.37 L 702.14 566.10 L 690.31 584.23 L 678.04 602.01 L 665.22 619.41 L 651.42 636.10 L 636.25 651.58 L 619.65 665.51 L 601.93 677.93 L 583.61 689.33 L 565.10 700.31 L 546.49 711.30 L 527.55 722.15 L 507.92 732.14 L 487.36 740.26 L 465.95 745.70 L 443.99 748.21 L 421.91 748.19 L 400.00 746.47 L 378.37 743.83 L 356.97 740.62 L 335.78 736.64 L 314.91 731.39 L 294.58 724.44 L 274.97 715.79 L 256.03 705.95 L 237.48 695.63 L 218.89 685.39 L 199.98 675.30 L 180.90 664.85 L 162.20 653.23 L 144.69 639.75 L 129.08 624.12 L 115.64 606.60 L 104.14 587.76 L 94.02 568.21 L 84.83 548.31 L 76.47 528.10 L 69.30 507.45 L 63.90 486.30 L 60.66 464.73 L 59.48 443.02 L 59.73 421.41 L 60.53 400.00 L 61.24 378.69 L 61.82 357.28 L 62.85 335.69 L 65.30 314.06 L 70.01 292.78 L 77.28 272.23 L 86.81 252.63 L 97.86 233.90 L 109.69 215.77 L 121.96 197.99 L 134.78 180.59 L 148.58 163.90 L 163.75 148.42 L 180.35 134.49 L 198.07 122.07 L 216.39 110.67 L 234.90 99.69 L 253.51 88.70 L 272.45 77.85 L 292.08 67.86 L 312.64 59.74 L 334.05 54.30 L 356.01 51.79 L 378.09 51.81 L 400.00 53.53 L 421.63 56.17 L 443.03 59.38 L 464.22 63.36 L 485.09 68.61 L 505.42 75.56 L 525.03 84.21 L 543.97 94.05 L 562.52 104.37 L 581.11 114.61 L 600.02 124.70 L 619.10 135.15 L 637.80 146.77 L 655.31 160.25 L 670.92 175.88 L 684.36 193.40 L 695.86 212.24 L 705.98 231.79 L 715.17 251.69 L 723.53 271.90 L 730.70 292.55 L 736.10 313.70 L 739.34 335.27 L 740.52 356.98 L 740.27 378.59 L 739.47 400.00 Z" fill="none" stroke="currentColor" stroke-width="1.5" stroke-opacity="0.25"/>
        <path d="M 756.31 400.00 L 757.31 422.48 L 757.43 445.15 L 755.68 467.85 L 751.36 490.21 L 744.36 511.89 L 735.19 532.71 L 724.68 552.78 L 713.52 572.36 L 701.92 591.61 L 689.65 610.45 L 676.22 628.51 L 661.30 645.37 L 644.91 660.80 L 627.47 674.97 L 609.52 688.38 L 591.41 701.61 L 573.11 714.89 L 554.29 727.89 L 534.51 739.74 L 513.54 749.45 L 491.48 756.30 L 468.71 760.21 L 445.69 761.71 L 422.75 761.62 L 400.00 760.60 L 377.43 758.82 L 355.03 755.95 L 332.95 751.48 L 311.40 745.09 L 290.51 736.99 L 270.21 727.81 L 250.20 718.34 L 230.10 709.04 L 209.72 699.83 L 189.26 690.05 L 169.32 678.84 L 150.64 665.54 L 133.78 650.00 L 118.87 632.57 L 105.60 613.89 L 93.46 594.54 L 82.12 574.76 L 71.65 554.51 L 62.55 533.61 L 55.39 511.97 L 50.49 489.74 L 47.58 467.23 L 45.98 444.72 L 44.84 422.34 L 43.69 400.00 L 42.69 377.52 L 42.57 354.85 L 44.32 332.15 L 48.64 309.79 L 55.64 288.11 L 64.81 267.29 L 75.32 247.22 L 86.48 227.64 L 98.08 208.39 L 110.35 189.55 L 123.78 171.49 L 138.70 154.63 L 155.09 139.20 L 172.53 125.03 L 190.48 111.62 L 208.59 98.39 L 226.89 85.11 L 245.71 72.11 L 265.49 60.26 L 286.46 50.55 L 308.52 43.70 L 331.29 39.79 L 354.31 38.29 L 377.25 38.38 L 400.00 39.40 L 422.57 41.18 L 444.97 44.05 L 467.05 48.52 L 488.60 54.91 L 509.49 63.01 L 529.79 72.19 L 549.80 81.66 L 569.90 90.96 L 590.28 100.17 L 610.74 109.95 L 630.68 121.16 L 649.36 134.46 L 666.22 150.00 L 681.13 167.43 L 694.40 186.11 L 706.54 205.46 L 717.88 225.24 L 728.35 245.49 L 737.45 266.39 L 744.61 288.03 L 749.51 310.26 L 752.42 332.77 L 754.02 355.28 L 755.16 377.66 L 756.31 400.00 Z" fill="none" stroke="currentColor" stroke-width="1.5" stroke-opacity="0.25"/>
        <path d="M 775.32 400.00 L 776.75 423.70 L 775.87 447.48 L 772.14 470.99 L 765.64 493.88 L 757.08 516.02 L 747.30 537.51 L 736.92 558.54 L 726.03 579.24 L 714.28 599.45 L 701.19 618.83 L 686.50 637.01 L 670.37 653.90 L 653.33 669.76 L 635.89 685.15 L 618.35 700.53 L 600.53 715.98 L 581.97 730.99 L 562.17 744.64 L 540.93 755.94 L 518.38 764.34 L 494.97 769.90 L 471.20 773.23 L 447.38 775.08 L 423.65 775.96 L 400.00 775.85 L 376.45 774.31 L 353.15 770.84 L 330.32 765.26 L 308.09 757.96 L 286.38 749.70 L 264.88 741.27 L 243.29 733.02 L 221.50 724.69 L 199.76 715.53 L 178.67 704.64 L 158.87 691.47 L 140.80 676.02 L 124.45 658.76 L 109.44 640.37 L 95.33 621.36 L 81.91 601.87 L 69.42 581.74 L 58.42 560.74 L 49.46 538.79 L 42.72 516.09 L 37.85 492.98 L 34.09 469.80 L 30.72 446.65 L 27.46 423.44 L 24.68 400.00 L 23.25 376.30 L 24.13 352.52 L 27.86 329.01 L 34.36 306.12 L 42.92 283.98 L 52.70 262.49 L 63.08 241.46 L 73.97 220.76 L 85.72 200.55 L 98.81 181.17 L 113.50 162.99 L 129.63 146.10 L 146.67 130.24 L 164.11 114.85 L 181.65 99.47 L 199.47 84.02 L 218.03 69.01 L 237.83 55.36 L 259.07 44.06 L 281.62 35.66 L 305.03 30.10 L 328.80 26.77 L 352.62 24.92 L 376.35 24.04 L 400.00 24.15 L 423.55 25.69 L 446.85 29.16 L 469.68 34.74 L 491.91 42.04 L 513.62 50.30 L 535.12 58.73 L 556.71 66.98 L 578.50 75.31 L 600.24 84.47 L 621.33 95.36 L 641.13 108.53 L 659.20 123.98 L 675.55 141.24 L 690.56 159.63 L 704.67 178.64 L 718.09 198.13 L 730.58 218.26 L 741.58 239.26 L 750.54 261.21 L 757.28 283.91 L 762.15 307.02 L 765.91 330.20 L 769.28 353.35 L 772.54 376.56 L 775.32 400.00 Z" fill="none" stroke="currentColor" stroke-width="1.5" stroke-opacity="0.25"/>
        <path d="M 794.61 400.00 L 794.82 424.84 L 791.94 449.51 L 786.27 473.68 L 778.61 497.21 L 769.82 520.16 L 760.39 542.69 L 750.29 564.83 L 739.08 586.41 L 726.33 607.09 L 711.89 626.60 L 696.09 644.95 L 679.52 662.49 L 662.72 679.77 L 645.84 697.18 L 628.58 714.62 L 610.36 731.47 L 590.64 746.77 L 569.23 759.64 L 546.36 769.67 L 522.51 777.05 L 498.19 782.43 L 473.72 786.47 L 449.20 789.48 L 424.62 791.25 L 400.00 791.25 L 375.52 789.03 L 351.42 784.58 L 327.81 778.41 L 304.64 771.39 L 281.65 764.24 L 258.58 757.18 L 235.40 749.79 L 212.42 741.21 L 190.20 730.60 L 169.29 717.54 L 150.00 702.20 L 132.20 685.18 L 115.49 667.17 L 99.49 648.60 L 84.13 629.49 L 69.75 609.58 L 56.95 588.60 L 46.19 566.49 L 37.53 543.51 L 30.50 520.06 L 24.38 496.44 L 18.58 472.76 L 13.02 448.89 L 8.30 424.64 L 5.39 400.00 L 5.18 375.16 L 8.06 350.49 L 13.73 326.32 L 21.39 302.79 L 30.18 279.84 L 39.61 257.31 L 49.71 235.17 L 60.92 213.59 L 73.67 192.91 L 88.11 173.40 L 103.91 155.05 L 120.48 137.51 L 137.28 120.23 L 154.16 102.82 L 171.42 85.38 L 189.64 68.53 L 209.36 53.23 L 230.77 40.36 L 253.64 30.33 L 277.49 22.95 L 301.81 17.57 L 326.28 13.53 L 350.80 10.52 L 375.38 8.75 L 400.00 8.75 L 424.48 10.97 L 448.58 15.42 L 472.19 21.59 L 495.36 28.61 L 518.35 35.76 L 541.42 42.82 L 564.60 50.21 L 587.58 58.79 L 609.80 69.40 L 630.71 82.46 L 650.00 97.80 L 667.80 114.82 L 684.51 132.83 L 700.51 151.40 L 715.87 170.51 L 730.25 190.42 L 743.05 211.40 L 753.81 233.51 L 762.47 256.49 L 769.50 279.94 L 775.62 303.56 L 781.42 327.24 L 786.98 351.11 L 791.70 375.36 L 794.61 400.00 Z" fill="none" stroke="currentColor" stroke-width="1.5" stroke-opacity="0.25"/>
        <path d="M 812.03 400.00 L 810.32 425.81 L 805.84 451.27 L 799.45 476.20 L 791.96 500.64 L 783.70 524.67 L 774.52 548.28 L 763.93 571.25 L 751.57 593.28 L 737.47 614.16 L 722.10 634.02 L 706.13 653.25 L 690.05 672.37 L 673.89 691.66 L 657.21 710.91 L 639.33 729.41 L 619.72 746.22 L 598.23 760.58 L 575.17 772.26 L 551.07 781.57 L 526.44 789.13 L 501.55 795.50 L 476.45 800.76 L 451.11 804.56 L 425.56 806.30 L 400.00 805.60 L 374.67 802.60 L 349.73 797.95 L 325.12 792.53 L 300.64 786.96 L 276.11 781.29 L 251.56 774.92 L 227.32 766.96 L 203.94 756.64 L 181.86 743.73 L 161.28 728.57 L 141.99 711.88 L 123.60 694.33 L 105.81 676.26 L 88.65 657.57 L 72.54 637.92 L 58.04 617.01 L 45.53 594.87 L 34.91 571.80 L 25.66 548.21 L 17.06 524.42 L 8.71 500.47 L 0.78 476.16 L -5.98 451.29 L -10.52 425.83 L -12.03 400.00 L -10.32 374.19 L -5.84 348.73 L 0.55 323.80 L 8.04 299.36 L 16.30 275.33 L 25.48 251.72 L 36.07 228.75 L 48.43 206.72 L 62.53 185.84 L 77.90 165.98 L 93.87 146.75 L 109.95 127.63 L 126.11 108.34 L 142.79 89.09 L 160.67 70.59 L 180.28 53.78 L 201.77 39.42 L 224.83 27.74 L 248.93 18.43 L 273.56 10.87 L 298.45 4.50 L 323.55 -0.76 L 348.89 -4.56 L 374.44 -6.30 L 400.00 -5.60 L 425.33 -2.60 L 450.27 2.05 L 474.88 7.47 L 499.36 13.04 L 523.89 18.71 L 548.44 25.08 L 572.68 33.04 L 596.06 43.36 L 618.14 56.27 L 638.72 71.43 L 658.01 88.12 L 676.40 105.67 L 694.19 123.74 L 711.35 142.43 L 727.46 162.08 L 741.96 182.99 L 754.47 205.13 L 765.09 228.20 L 774.34 251.79 L 782.94 275.58 L 791.29 299.53 L 799.22 323.84 L 805.98 348.71 L 810.52 374.17 L 812.03 400.00 Z" fill="none" stroke="currentColor" stroke-width="1.5" stroke-opacity="0.25"/>
        <path d="M 826.83 400.00 L 823.91 426.67 L 819.17 452.95 L 813.30 478.84 L 806.48 504.37 L 798.40 529.45 L 788.59 553.85 L 776.78 577.30 L 763.17 599.66 L 748.40 621.10 L 733.16 642.06 L 717.90 662.99 L 702.49 684.06 L 686.37 704.96 L 668.81 724.93 L 649.29 743.11 L 627.77 758.91 L 604.63 772.23 L 580.46 783.49 L 555.71 793.29 L 530.62 802.01 L 505.16 809.56 L 479.25 815.45 L 452.94 819.06 L 426.43 820.12 L 400.00 818.91 L 373.82 816.15 L 347.86 812.70 L 321.98 809.01 L 296.03 804.94 L 270.12 799.74 L 244.60 792.51 L 219.97 782.59 L 196.62 769.94 L 174.64 755.11 L 153.80 738.87 L 133.71 721.88 L 114.19 704.36 L 95.34 686.09 L 77.63 666.69 L 61.55 645.90 L 47.34 623.80 L 34.78 600.78 L 23.27 577.27 L 12.19 553.54 L 1.31 529.54 L -8.99 505.01 L -17.79 479.70 L -24.05 453.57 L -27.08 426.87 L -26.83 400.00 L -23.91 373.33 L -19.17 347.05 L -13.30 321.16 L -6.48 295.63 L 1.60 270.55 L 11.41 246.15 L 23.22 222.70 L 36.83 200.34 L 51.60 178.90 L 66.84 157.94 L 82.10 137.01 L 97.51 115.94 L 113.63 95.04 L 131.19 75.07 L 150.71 56.89 L 172.23 41.09 L 195.37 27.77 L 219.54 16.51 L 244.29 6.71 L 269.38 -2.01 L 294.84 -9.56 L 320.75 -15.45 L 347.06 -19.06 L 373.57 -20.12 L 400.00 -18.91 L 426.18 -16.15 L 452.14 -12.70 L 478.02 -9.01 L 503.97 -4.94 L 529.88 0.26 L 555.40 7.49 L 580.03 17.41 L 603.38 30.06 L 625.36 44.89 L 646.20 61.13 L 666.29 78.12 L 685.81 95.64 L 704.66 113.91 L 722.37 133.31 L 738.45 154.10 L 752.66 176.20 L 765.22 199.22 L 776.73 222.73 L 787.81 246.46 L 798.69 270.46 L 808.99 294.99 L 817.79 320.30 L 824.05 346.43 L 827.08 373.13 L 826.83 400.00 Z" fill="none" stroke="currentColor" stroke-width="1.5" stroke-opacity="0.25"/>
        <path d="M 840.07 400.00 L 837.32 427.51 L 833.39 454.75 L 828.26 481.70 L 821.52 508.23 L 812.70 534.10 L 801.68 559.04 L 788.83 582.97 L 774.89 606.10 L 760.60 628.84 L 746.27 651.58 L 731.65 674.36 L 716.06 696.80 L 698.75 718.14 L 679.30 737.61 L 657.77 754.79 L 634.65 769.74 L 610.53 782.95 L 585.85 794.95 L 560.73 805.97 L 535.09 815.75 L 508.79 823.71 L 481.89 829.27 L 454.61 832.28 L 427.25 833.12 L 400.00 832.59 L 372.86 831.43 L 345.69 829.91 L 318.42 827.66 L 291.18 823.81 L 264.36 817.47 L 238.40 808.15 L 213.66 795.99 L 190.16 781.70 L 167.66 766.12 L 145.85 749.81 L 124.61 732.89 L 104.15 715.05 L 84.92 695.88 L 67.32 675.21 L 51.46 653.23 L 36.97 630.39 L 23.24 607.13 L 9.74 583.64 L -3.57 559.78 L -16.12 535.21 L -26.91 509.61 L -34.92 482.97 L -39.61 455.54 L -41.10 427.75 L -40.07 400.00 L -37.32 372.49 L -33.39 345.25 L -28.26 318.30 L -21.52 291.77 L -12.70 265.90 L -1.68 240.96 L 11.17 217.03 L 25.11 193.90 L 39.40 171.16 L 53.73 148.42 L 68.35 125.64 L 83.94 103.20 L 101.25 81.86 L 120.70 62.39 L 142.23 45.21 L 165.35 30.26 L 189.47 17.05 L 214.15 5.05 L 239.27 -5.97 L 264.91 -15.75 L 291.21 -23.71 L 318.11 -29.27 L 345.39 -32.28 L 372.75 -33.12 L 400.00 -32.59 L 427.14 -31.43 L 454.31 -29.91 L 481.58 -27.66 L 508.82 -23.81 L 535.64 -17.47 L 561.60 -8.15 L 586.34 4.01 L 609.84 18.30 L 632.34 33.88 L 654.15 50.19 L 675.39 67.11 L 695.85 84.95 L 715.08 104.12 L 732.68 124.79 L 748.54 146.77 L 763.03 169.61 L 776.76 192.87 L 790.26 216.36 L 803.57 240.22 L 816.12 264.79 L 826.91 290.39 L 834.92 317.03 L 839.61 344.46 L 841.10 372.25 L 840.07 400.00 Z" fill="none" stroke="currentColor" stroke-width="1.5" stroke-opacity="0.25"/>
        <path d="M 853.51 400.00 L 851.76 428.42 L 848.56 456.67 L 843.39 484.58 L 835.83 511.90 L 825.90 538.38 L 814.13 563.97 L 801.36 588.86 L 788.26 613.45 L 775.03 638.00 L 761.26 662.47 L 746.20 686.40 L 729.12 709.06 L 709.72 729.82 L 688.21 748.39 L 665.18 764.99 L 641.23 780.12 L 616.74 794.25 L 591.73 807.44 L 566.03 819.34 L 539.48 829.29 L 512.15 836.81 L 484.29 841.87 L 456.21 844.98 L 428.12 846.93 L 400.00 848.30 L 371.74 849.16 L 343.29 848.92 L 314.80 846.61 L 286.67 841.39 L 259.33 832.92 L 233.09 821.57 L 207.95 808.13 L 183.70 793.45 L 160.11 778.00 L 137.16 761.77 L 115.10 744.39 L 94.36 725.48 L 75.25 704.96 L 57.71 683.16 L 41.31 660.61 L 25.41 637.72 L 9.61 614.62 L -5.97 591.03 L -20.61 566.53 L -33.26 540.77 L -43.00 513.74 L -49.45 485.74 L -52.87 457.21 L -53.99 428.56 L -53.51 400.00 L -51.76 371.58 L -48.56 343.33 L -43.39 315.42 L -35.83 288.10 L -25.90 261.62 L -14.13 236.03 L -1.36 211.14 L 11.74 186.55 L 24.97 162.00 L 38.74 137.53 L 53.80 113.60 L 70.88 90.94 L 90.28 70.18 L 111.79 51.61 L 134.82 35.01 L 158.77 19.88 L 183.26 5.75 L 208.27 -7.44 L 233.97 -19.34 L 260.52 -29.29 L 287.85 -36.81 L 315.71 -41.87 L 343.79 -44.98 L 371.88 -46.93 L 400.00 -48.30 L 428.26 -49.16 L 456.71 -48.92 L 485.20 -46.61 L 513.33 -41.39 L 540.67 -32.92 L 566.91 -21.57 L 592.05 -8.13 L 616.30 6.55 L 639.89 22.00 L 662.84 38.23 L 684.90 55.61 L 705.64 74.52 L 724.75 95.04 L 742.29 116.84 L 758.69 139.39 L 774.59 162.28 L 790.39 185.38 L 805.97 208.97 L 820.61 233.47 L 833.26 259.23 L 843.00 286.26 L 849.45 314.26 L 852.87 342.79 L 853.99 371.44 L 853.51 400.00 Z" fill="none" stroke="currentColor" stroke-width="1.5" stroke-opacity="0.25"/>
        <path d="M 868.01 400.00 L 866.90 429.37 L 863.51 458.56 L 857.49 487.27 L 849.00 515.28 L 838.71 542.55 L 827.47 569.25 L 815.87 595.69 L 803.94 622.07 L 791.13 648.22 L 776.64 673.65 L 759.82 697.67 L 740.51 719.76 L 719.10 739.80 L 696.24 758.09 L 672.56 775.15 L 648.34 791.32 L 623.51 806.57 L 597.83 820.41 L 571.14 832.25 L 543.51 841.69 L 515.25 848.87 L 486.68 854.37 L 457.98 858.93 L 429.13 862.99 L 400.00 866.36 L 370.54 868.24 L 340.92 867.64 L 311.53 863.76 L 282.80 856.47 L 255.00 846.28 L 228.15 834.05 L 202.09 820.59 L 176.67 806.23 L 151.96 790.84 L 128.27 774.00 L 105.98 755.41 L 85.29 735.13 L 66.03 713.62 L 47.68 691.46 L 29.66 669.07 L 11.67 646.44 L -5.99 623.19 L -22.52 598.82 L -36.88 572.97 L -48.29 545.66 L -56.53 517.22 L -62.02 488.13 L -65.45 458.80 L -67.40 429.41 L -68.01 400.00 L -66.90 370.63 L -63.51 341.44 L -57.49 312.73 L -49.00 284.72 L -38.71 257.45 L -27.47 230.75 L -15.87 204.31 L -3.94 177.93 L 8.87 151.78 L 23.36 126.35 L 40.18 102.33 L 59.49 80.24 L 80.90 60.20 L 103.76 41.91 L 127.44 24.85 L 151.66 8.68 L 176.49 -6.57 L 202.17 -20.41 L 228.86 -32.25 L 256.49 -41.69 L 284.75 -48.87 L 313.32 -54.37 L 342.02 -58.93 L 370.87 -62.99 L 400.00 -66.36 L 429.46 -68.24 L 459.08 -67.64 L 488.47 -63.76 L 517.20 -56.47 L 545.00 -46.28 L 571.85 -34.05 L 597.91 -20.59 L 623.33 -6.23 L 648.04 9.16 L 671.73 26.00 L 694.02 44.59 L 714.71 64.87 L 733.97 86.38 L 752.32 108.54 L 770.34 130.93 L 788.33 153.56 L 805.99 176.81 L 822.52 201.18 L 836.88 227.03 L 848.29 254.34 L 856.53 282.78 L 862.02 311.87 L 865.45 341.20 L 867.40 370.59 L 868.01 400.00 Z" fill="none" stroke="currentColor" stroke-width="1.5" stroke-opacity="0.25"/>
        <path d="M 882.93 400.00 L 881.49 430.29 L 877.26 460.29 L 870.55 489.76 L 862.12 518.65 L 852.79 547.12 L 843.01 575.40 L 832.63 603.58 L 820.95 631.42 L 807.14 658.38 L 790.68 683.84 L 771.58 707.40 L 750.38 729.03 L 727.83 749.11 L 704.52 768.10 L 680.64 786.27 L 656.03 803.45 L 630.41 819.12 L 603.63 832.73 L 575.81 844.05 L 547.30 853.35 L 518.44 861.29 L 489.37 868.52 L 460.04 875.29 L 430.27 881.17 L 400.00 885.23 L 369.40 886.44 L 338.84 884.13 L 308.75 878.33 L 279.41 869.67 L 250.85 859.04 L 222.97 847.14 L 195.71 834.14 L 169.22 819.78 L 143.84 803.65 L 119.90 785.53 L 97.51 765.64 L 76.42 744.58 L 56.06 722.98 L 35.93 701.19 L 15.86 679.09 L -3.72 656.21 L -21.96 631.97 L -37.89 606.06 L -50.90 578.52 L -60.95 549.77 L -68.55 520.30 L -74.37 490.49 L -78.82 460.49 L -81.85 430.32 L -82.93 400.00 L -81.49 369.71 L -77.26 339.71 L -70.55 310.24 L -62.12 281.35 L -52.79 252.88 L -43.01 224.60 L -32.63 196.42 L -20.95 168.58 L -7.14 141.62 L 9.32 116.16 L 28.42 92.60 L 49.62 70.97 L 72.17 50.89 L 95.48 31.90 L 119.36 13.73 L 143.97 -3.45 L 169.59 -19.12 L 196.37 -32.73 L 224.19 -44.05 L 252.70 -53.35 L 281.56 -61.29 L 310.63 -68.52 L 339.96 -75.29 L 369.73 -81.17 L 400.00 -85.23 L 430.60 -86.44 L 461.16 -84.13 L 491.25 -78.33 L 520.59 -69.67 L 549.15 -59.04 L 577.03 -47.14 L 604.29 -34.14 L 630.78 -19.78 L 656.16 -3.65 L 680.10 14.47 L 702.49 34.36 L 723.58 55.42 L 743.94 77.02 L 764.07 98.81 L 784.14 120.91 L 803.72 143.79 L 821.96 168.03 L 837.89 193.94 L 850.90 221.48 L 860.95 250.23 L 868.55 279.70 L 874.37 309.51 L 878.82 339.51 L 881.85 369.68 L 882.93 400.00 Z" fill="none" stroke="currentColor" stroke-width="1.5" stroke-opacity="0.25"/>
        <path d="M 897.00 400.00 L 894.77 431.13 L 890.15 461.92 L 883.94 492.32 L 876.88 522.44 L 869.23 552.46 L 860.62 582.37 L 850.26 611.88 L 837.32 640.42 L 821.40 667.43 L 802.72 692.59 L 781.96 715.98 L 759.90 737.97 L 737.09 758.97 L 713.63 779.11 L 689.27 798.15 L 663.72 815.55 L 636.88 830.87 L 608.95 844.04 L 580.33 855.47 L 551.36 865.83 L 522.14 875.70 L 492.54 885.11 L 462.33 893.43 L 431.43 899.63 L 400.00 902.70 L 368.41 902.12 L 337.08 898.09 L 306.28 891.32 L 276.07 882.66 L 246.43 872.64 L 217.37 861.27 L 189.10 848.19 L 161.96 832.99 L 136.27 815.57 L 112.06 796.32 L 88.99 775.95 L 66.54 755.10 L 44.28 734.04 L 22.19 712.55 L 0.80 690.04 L -19.03 665.92 L -36.44 639.94 L -51.01 612.23 L -62.87 583.26 L -72.59 553.55 L -80.79 523.45 L -87.72 493.04 L -93.13 462.30 L -96.41 431.23 L -97.00 400.00 L -94.77 368.87 L -90.15 338.08 L -83.94 307.68 L -76.88 277.56 L -69.23 247.54 L -60.62 217.63 L -50.26 188.12 L -37.32 159.58 L -21.40 132.57 L -2.72 107.41 L 18.04 84.02 L 40.10 62.03 L 62.91 41.03 L 86.37 20.89 L 110.73 1.85 L 136.28 -15.55 L 163.12 -30.87 L 191.05 -44.04 L 219.67 -55.47 L 248.64 -65.83 L 277.86 -75.70 L 307.46 -85.11 L 337.67 -93.43 L 368.57 -99.63 L 400.00 -102.70 L 431.59 -102.12 L 462.92 -98.09 L 493.72 -91.32 L 523.93 -82.66 L 553.57 -72.64 L 582.63 -61.27 L 610.90 -48.19 L 638.04 -32.99 L 663.73 -15.57 L 687.94 3.68 L 711.01 24.05 L 733.46 44.90 L 755.72 65.96 L 777.81 87.45 L 799.20 109.96 L 819.03 134.08 L 836.44 160.06 L 851.01 187.77 L 862.87 216.74 L 872.59 246.45 L 880.79 276.55 L 887.72 306.96 L 893.13 337.70 L 896.41 368.77 L 897.00 400.00 Z" fill="none" stroke="currentColor" stroke-width="1.5" stroke-opacity="0.25"/>
        <path d="M 909.82 400.00 L 907.52 431.93 L 903.81 463.65 L 899.30 495.25 L 894.02 526.84 L 887.42 558.37 L 878.57 589.48 L 866.72 619.62 L 851.61 648.27 L 833.64 675.19 L 813.60 700.49 L 792.29 724.53 L 770.16 747.61 L 747.22 769.75 L 723.16 790.64 L 697.71 809.76 L 670.85 826.80 L 642.90 841.83 L 614.29 855.39 L 585.36 868.16 L 556.15 880.58 L 526.45 892.48 L 495.97 903.09 L 464.59 911.32 L 432.48 916.24 L 400.00 917.51 L 367.57 915.47 L 335.46 910.87 L 303.77 904.47 L 272.49 896.62 L 241.72 887.15 L 211.70 875.59 L 182.80 861.58 L 155.27 845.16 L 129.09 826.88 L 103.92 807.51 L 79.28 787.68 L 54.86 767.54 L 30.77 746.73 L 7.62 724.61 L -13.75 700.61 L -32.63 674.55 L -48.76 646.71 L -62.45 617.61 L -74.30 587.79 L -84.83 557.53 L -94.14 526.87 L -101.83 495.73 L -107.25 464.08 L -109.91 432.08 L -109.82 400.00 L -107.52 368.07 L -103.81 336.35 L -99.30 304.75 L -94.02 273.16 L -87.42 241.63 L -78.57 210.52 L -66.72 180.38 L -51.61 151.73 L -33.64 124.81 L -13.60 99.51 L 7.71 75.47 L 29.84 52.39 L 52.78 30.25 L 76.84 9.36 L 102.29 -9.76 L 129.15 -26.80 L 157.10 -41.83 L 185.71 -55.39 L 214.64 -68.16 L 243.85 -80.58 L 273.55 -92.48 L 304.03 -103.09 L 335.41 -111.32 L 367.52 -116.24 L 400.00 -117.51 L 432.43 -115.47 L 464.54 -110.87 L 496.23 -104.47 L 527.51 -96.62 L 558.28 -87.15 L 588.30 -75.59 L 617.20 -61.58 L 644.73 -45.16 L 670.91 -26.88 L 696.08 -7.51 L 720.72 12.32 L 745.14 32.46 L 769.23 53.27 L 792.38 75.39 L 813.75 99.39 L 832.63 125.45 L 848.76 153.29 L 862.45 182.39 L 874.30 212.21 L 884.83 242.47 L 894.14 273.13 L 901.83 304.27 L 907.25 335.92 L 909.91 367.92 L 909.82 400.00 Z" fill="none" stroke="currentColor" stroke-width="1.5" stroke-opacity="0.25"/>
        <path d="M 922.50 400.00 L 921.48 432.81 L 919.70 465.65 L 916.96 498.62 L 912.51 531.59 L 905.36 564.20 L 894.84 595.92 L 880.85 626.27 L 863.94 655.05 L 844.98 682.39 L 824.72 708.58 L 803.52 733.82 L 781.25 758.02 L 757.59 780.80 L 732.31 801.70 L 705.53 820.52 L 677.64 837.50 L 649.17 853.24 L 620.41 868.39 L 591.33 883.25 L 561.64 897.48 L 531.00 910.20 L 499.25 920.31 L 466.58 927.04 L 433.36 930.22 L 400.00 930.31 L 366.78 928.08 L 333.78 924.15 L 301.06 918.67 L 268.72 911.28 L 237.06 901.48 L 206.41 888.95 L 177.00 873.89 L 148.79 856.96 L 121.43 838.96 L 94.53 820.45 L 67.90 801.44 L 41.80 781.44 L 16.88 759.77 L -6.06 735.92 L -26.46 709.84 L -44.25 681.93 L -59.83 652.79 L -73.81 622.96 L -86.62 592.67 L -98.19 561.87 L -108.02 530.44 L -115.49 498.33 L -120.20 465.72 L -122.33 432.86 L -122.50 400.00 L -121.48 367.19 L -119.70 334.35 L -116.96 301.38 L -112.51 268.41 L -105.36 235.80 L -94.84 204.08 L -80.85 173.73 L -63.94 144.95 L -44.98 117.61 L -24.72 91.42 L -3.52 66.18 L 18.75 41.98 L 42.41 19.20 L 67.69 -1.70 L 94.47 -20.52 L 122.36 -37.50 L 150.83 -53.24 L 179.59 -68.39 L 208.67 -83.25 L 238.36 -97.48 L 269.00 -110.20 L 300.75 -120.31 L 333.42 -127.04 L 366.64 -130.22 L 400.00 -130.31 L 433.22 -128.08 L 466.22 -124.15 L 498.94 -118.67 L 531.28 -111.28 L 562.94 -101.48 L 593.59 -88.95 L 623.00 -73.89 L 651.21 -56.96 L 678.57 -38.96 L 705.47 -20.45 L 732.10 -1.44 L 758.20 18.56 L 783.12 40.23 L 806.06 64.08 L 826.46 90.16 L 844.25 118.07 L 859.83 147.21 L 873.81 177.04 L 886.62 207.33 L 898.19 238.13 L 908.02 269.56 L 915.49 301.67 L 920.20 334.28 L 922.33 367.14 L 922.50 400.00 Z" fill="none" stroke="currentColor" stroke-width="1.5" stroke-opacity="0.25"/>
        <path d="M 936.84 400.00 L 937.85 433.84 L 937.71 467.93 L 935.48 502.15 L 930.17 536.13 L 921.20 569.35 L 908.65 601.39 L 893.18 632.07 L 875.69 661.51 L 856.83 689.92 L 836.82 717.37 L 815.44 743.68 L 792.34 768.43 L 767.38 791.22 L 740.81 811.96 L 713.16 831.02 L 684.96 849.03 L 656.50 866.58 L 627.66 883.79 L 598.04 900.20 L 567.28 914.84 L 535.24 926.71 L 502.09 935.18 L 468.25 940.29 L 434.14 942.60 L 400.00 942.85 L 365.93 941.49 L 331.98 938.47 L 298.27 933.30 L 265.09 925.43 L 232.78 914.66 L 201.52 901.30 L 171.25 886.11 L 141.68 869.88 L 112.50 853.03 L 83.66 835.40 L 55.53 816.40 L 28.79 795.30 L 4.18 771.70 L -17.88 745.70 L -37.47 717.84 L -55.05 688.79 L -71.22 659.05 L -86.25 628.81 L -99.98 597.95 L -111.83 566.30 L -121.24 533.83 L -127.97 500.72 L -132.35 467.25 L -135.08 433.66 L -136.84 400.00 L -137.85 366.16 L -137.71 332.07 L -135.48 297.85 L -130.17 263.87 L -121.20 230.65 L -108.65 198.61 L -93.18 167.93 L -75.69 138.49 L -56.83 110.08 L -36.82 82.63 L -15.44 56.32 L 7.66 31.57 L 32.62 8.78 L 59.19 -11.96 L 86.84 -31.02 L 115.04 -49.03 L 143.50 -66.58 L 172.34 -83.79 L 201.96 -100.20 L 232.72 -114.84 L 264.76 -126.71 L 297.91 -135.18 L 331.75 -140.29 L 365.86 -142.60 L 400.00 -142.85 L 434.07 -141.49 L 468.02 -138.47 L 501.73 -133.30 L 534.91 -125.43 L 567.22 -114.66 L 598.48 -101.30 L 628.75 -86.11 L 658.32 -69.88 L 687.50 -53.03 L 716.34 -35.40 L 744.47 -16.40 L 771.21 4.70 L 795.82 28.30 L 817.88 54.30 L 837.47 82.16 L 855.05 111.21 L 871.22 140.95 L 886.25 171.19 L 899.98 202.05 L 911.83 233.70 L 921.24 266.17 L 927.97 299.28 L 932.35 332.75 L 935.08 366.34 L 936.84 400.00 Z" fill="none" stroke="currentColor" stroke-width="1.5" stroke-opacity="0.25"/>
        <path d="M 953.66 400.00 L 956.06 434.98 L 956.05 470.25 L 952.66 505.42 L 945.42 540.04 L 934.60 573.70 L 920.93 606.25 L 905.28 637.77 L 888.17 668.38 L 869.65 698.05 L 849.39 726.50 L 827.07 753.30 L 802.65 778.12 L 776.53 800.96 L 749.33 822.27 L 721.62 842.68 L 693.61 862.66 L 665.08 882.18 L 635.59 900.66 L 604.74 917.10 L 572.41 930.63 L 538.86 940.81 L 504.51 947.86 L 469.79 952.43 L 434.93 955.18 L 400.00 956.40 L 365.03 955.85 L 330.15 952.93 L 295.63 947.12 L 261.78 938.32 L 228.77 926.99 L 196.52 913.93 L 164.80 899.83 L 133.39 884.97 L 102.37 868.99 L 72.20 851.17 L 43.59 830.83 L 17.18 807.66 L -6.72 781.93 L -28.29 754.31 L -48.05 725.52 L -66.47 696.03 L -83.74 665.94 L -99.55 635.07 L -113.34 603.25 L -124.63 570.46 L -133.38 536.95 L -140.03 503.02 L -145.34 468.89 L -149.87 434.60 L -153.66 400.00 L -156.06 365.02 L -156.05 329.75 L -152.66 294.58 L -145.42 259.96 L -134.60 226.30 L -120.93 193.75 L -105.28 162.23 L -88.17 131.62 L -69.65 101.95 L -49.39 73.50 L -27.07 46.70 L -2.65 21.88 L 23.47 -0.96 L 50.67 -22.27 L 78.38 -42.68 L 106.39 -62.66 L 134.92 -82.18 L 164.41 -100.66 L 195.26 -117.10 L 227.59 -130.63 L 261.14 -140.81 L 295.49 -147.86 L 330.21 -152.43 L 365.07 -155.18 L 400.00 -156.40 L 434.97 -155.85 L 469.85 -152.93 L 504.37 -147.12 L 538.22 -138.32 L 571.23 -126.99 L 603.48 -113.93 L 635.20 -99.83 L 666.61 -84.97 L 697.63 -68.99 L 727.80 -51.17 L 756.41 -30.83 L 782.82 -7.66 L 806.72 18.07 L 828.29 45.69 L 848.05 74.48 L 866.47 103.97 L 883.74 134.06 L 899.55 164.93 L 913.34 196.75 L 924.63 229.54 L 933.38 263.05 L 940.03 296.98 L 945.34 331.11 L 949.87 365.40 L 953.66 400.00 Z" fill="none" stroke="currentColor" stroke-width="1.5" stroke-opacity="0.25"/>
        <path d="M 971.95 400.00 L 974.07 436.12 L 972.60 472.34 L 967.24 508.21 L 958.38 543.37 L 946.83 577.67 L 933.34 611.16 L 918.28 643.88 L 901.52 675.71 L 882.65 706.30 L 861.37 735.21 L 837.79 762.17 L 812.43 787.30 L 785.99 811.04 L 759.02 833.98 L 731.63 856.46 L 703.53 878.29 L 674.21 898.79 L 643.28 916.99 L 610.69 932.15 L 576.78 944.06 L 542.01 953.09 L 506.81 959.94 L 471.40 965.17 L 435.79 968.91 L 400.00 970.75 L 364.14 970.05 L 328.45 966.36 L 293.23 959.70 L 258.61 950.66 L 224.54 940.03 L 190.80 928.39 L 157.29 915.78 L 124.19 901.69 L 92.03 885.29 L 61.49 865.92 L 33.16 843.43 L 7.23 818.26 L -16.54 791.15 L -38.63 762.86 L -59.43 733.80 L -78.97 703.97 L -96.87 673.16 L -112.59 641.21 L -125.77 608.17 L -136.56 574.34 L -145.52 540.07 L -153.41 505.57 L -160.67 470.83 L -167.11 435.68 L -171.95 400.00 L -174.07 363.88 L -172.60 327.66 L -167.24 291.79 L -158.38 256.63 L -146.83 222.33 L -133.34 188.84 L -118.28 156.12 L -101.52 124.29 L -82.65 93.70 L -61.37 64.79 L -37.79 37.83 L -12.43 12.70 L 14.01 -11.04 L 40.98 -33.98 L 68.37 -56.46 L 96.47 -78.29 L 125.79 -98.79 L 156.72 -116.99 L 189.31 -132.15 L 223.22 -144.06 L 257.99 -153.09 L 293.19 -159.94 L 328.60 -165.17 L 364.21 -168.91 L 400.00 -170.75 L 435.86 -170.05 L 471.55 -166.36 L 506.77 -159.70 L 541.39 -150.66 L 575.46 -140.03 L 609.20 -128.39 L 642.71 -115.78 L 675.81 -101.69 L 707.97 -85.29 L 738.51 -65.92 L 766.84 -43.43 L 792.77 -18.26 L 816.54 8.85 L 838.63 37.14 L 859.43 66.20 L 878.97 96.03 L 896.87 126.84 L 912.59 158.79 L 925.77 191.83 L 936.56 225.66 L 945.52 259.93 L 953.41 294.43 L 960.67 329.17 L 967.11 364.32 L 971.95 400.00 Z" fill="none" stroke="currentColor" stroke-width="1.5" stroke-opacity="0.25"/>
        <path d="M 989.51 400.00 L 989.93 437.12 L 986.52 474.09 L 979.81 510.60 L 970.59 546.50 L 959.51 581.80 L 946.73 616.47 L 931.95 650.32 L 914.72 682.97 L 894.79 714.00 L 872.39 743.21 L 848.15 770.74 L 822.83 797.06 L 796.90 822.66 L 770.38 847.71 L 742.85 871.89 L 713.77 894.42 L 682.80 914.41 L 650.00 931.28 L 615.79 945.02 L 580.69 956.11 L 545.14 965.27 L 509.30 972.95 L 473.16 979.10 L 436.69 983.22 L 400.00 984.67 L 363.31 983.10 L 326.89 978.69 L 290.86 972.12 L 255.15 964.14 L 219.61 955.18 L 184.20 945.04 L 149.18 933.02 L 115.10 918.23 L 82.64 900.09 L 52.29 878.58 L 24.18 854.29 L -1.97 828.05 L -26.55 800.56 L -49.85 772.15 L -71.74 742.74 L -91.79 712.10 L -109.50 680.10 L -124.67 646.89 L -137.58 612.84 L -148.93 578.36 L -159.41 543.63 L -169.31 508.60 L -178.28 473.05 L -185.37 436.83 L -189.51 400.00 L -189.93 362.88 L -186.52 325.91 L -179.81 289.40 L -170.59 253.50 L -159.51 218.20 L -146.73 183.53 L -131.95 149.68 L -114.72 117.03 L -94.79 86.00 L -72.39 56.79 L -48.15 29.26 L -22.83 2.94 L 3.10 -22.66 L 29.62 -47.71 L 57.15 -71.89 L 86.23 -94.42 L 117.20 -114.41 L 150.00 -131.28 L 184.21 -145.02 L 219.31 -156.11 L 254.86 -165.27 L 290.70 -172.95 L 326.84 -179.10 L 363.31 -183.22 L 400.00 -184.67 L 436.69 -183.10 L 473.11 -178.69 L 509.14 -172.12 L 544.85 -164.14 L 580.39 -155.18 L 615.80 -145.04 L 650.82 -133.02 L 684.90 -118.23 L 717.36 -100.09 L 747.71 -78.58 L 775.82 -54.29 L 801.97 -28.05 L 826.55 -0.56 L 849.85 27.85 L 871.74 57.26 L 891.79 87.90 L 909.50 119.90 L 924.67 153.11 L 937.58 187.16 L 948.93 221.64 L 959.41 256.37 L 969.31 291.40 L 978.28 326.95 L 985.37 363.17 L 989.51 400.00 Z" fill="none" stroke="currentColor" stroke-width="1.5" stroke-opacity="0.25"/>
        <path d="M 1004.71 400.00 L 1003.29 437.96 L 998.83 475.65 L 992.09 512.95 L 983.56 549.83 L 973.19 586.24 L 960.56 621.94 L 945.17 656.54 L 926.86 689.64 L 905.99 721.11 L 883.29 751.13 L 859.47 780.11 L 834.93 808.43 L 809.53 836.10 L 782.75 862.67 L 754.04 887.30 L 723.14 909.19 L 690.23 927.92 L 655.82 943.64 L 620.51 956.94 L 584.71 968.48 L 548.55 978.58 L 511.99 987.06 L 474.96 993.35 L 437.55 996.86 L 400.00 997.40 L 362.55 995.32 L 325.30 991.33 L 288.19 986.13 L 251.09 979.96 L 214.02 972.39 L 177.27 962.55 L 141.41 949.53 L 107.06 932.85 L 74.66 912.65 L 44.27 889.62 L 15.64 864.61 L -11.56 838.27 L -37.44 810.79 L -61.77 782.01 L -84.07 751.70 L -103.90 719.79 L -121.21 686.54 L -136.43 652.42 L -150.27 617.87 L -163.38 583.05 L -175.87 547.86 L -187.22 512.02 L -196.42 475.34 L -202.44 437.90 L -204.71 400.00 L -203.29 362.04 L -198.83 324.35 L -192.09 287.05 L -183.56 250.17 L -173.19 213.76 L -160.56 178.06 L -145.17 143.46 L -126.86 110.36 L -105.99 78.89 L -83.29 48.87 L -59.47 19.89 L -34.93 -8.43 L -9.53 -36.10 L 17.25 -62.67 L 45.96 -87.30 L 76.86 -109.19 L 109.77 -127.92 L 144.18 -143.64 L 179.49 -156.94 L 215.29 -168.48 L 251.45 -178.58 L 288.01 -187.06 L 325.04 -193.35 L 362.45 -196.86 L 400.00 -197.40 L 437.45 -195.32 L 474.70 -191.33 L 511.81 -186.13 L 548.91 -179.96 L 585.98 -172.39 L 622.73 -162.55 L 658.59 -149.53 L 692.94 -132.85 L 725.34 -112.65 L 755.73 -89.62 L 784.36 -64.61 L 811.56 -38.27 L 837.44 -10.79 L 861.77 17.99 L 884.07 48.30 L 903.90 80.21 L 921.21 113.46 L 936.43 147.58 L 950.27 182.13 L 963.38 216.95 L 975.87 252.14 L 987.22 287.98 L 996.42 324.66 L 1002.44 362.10 L 1004.71 400.00 Z" fill="none" stroke="currentColor" stroke-width="1.5" stroke-opacity="0.25"/>
    </g>
</svg>